<svg xmlns="http://www.w3.org/2000/svg" viewBox="0 0 64 64">
  <rect width="64" height="64" rx="12" fill="#23776C"/>
  <svg x="6" y="6" width="52" height="52" viewBox="0 0 500 99" preserveAspectRatio="xMidYMid meet" fill="#ffffff">
    <path d="M66.2076 72.2962V69.0357C66.2076 67.7116 66.7156 67.2059 68.0456 67.2059H74.2814C75.6114 67.2059 76.1194 66.7002 76.1194 65.376V34.9271C76.1194 33.3967 75.304 32.5849 73.7668 32.5849H68.2461C65.6863 32.5849 64.5635 31.6666 64.5635 29.9366C64.5635 25.9641 70.8059 21.792 76.5338 21.792C80.2164 21.792 81.5465 23.7283 81.5465 27.8006V34.2151C85.0219 26.2236 91.0572 21.792 96.9922 21.792C102.005 21.792 105.788 24.8462 105.788 28.8187C105.788 31.8729 103.128 34.0155 100.06 34.0155C98.9372 34.0155 97.5002 33.7094 95.8627 32.4851L94.6329 31.6733C93.7106 31.0611 92.7949 30.8615 91.8726 30.8615C87.5751 30.8615 83.077 36.7703 82.7696 45.4272L81.9542 65.3893C81.8539 66.7135 82.4688 67.2192 83.7921 67.2192H96.3773C97.7074 67.2192 98.2153 67.7315 98.2153 69.049V72.3095C98.2153 73.6337 97.7007 74.1394 96.3773 74.1394H68.0456C66.7156 74.1394 66.2076 73.627 66.2076 72.3095V72.2962Z"/>
    <path d="M274.863 47.5365L281.245 19.7692C283.257 11.059 279.949 6.35461 274.274 6.35461C265.412 6.35461 263.895 20.4612 262.832 35.1334C262.371 41.5079 261.328 57.7438 260.894 59.6003L254.391 61.4501C256.89 53.6915 256.496 42.546 256.73 34.6277C257.265 16.5153 260.8 0 274.983 0C282.549 0 292.36 4.70441 289.045 19.7692L282.074 50.5974C279.708 61.1906 282.194 68.7163 290.108 68.7163C298.021 68.7163 305.353 60.126 310.085 48.4747C311.622 26.8225 315.165 14.8252 320.725 14.8252C327.462 14.8252 324.508 29.5307 317.297 49.4196C315.525 61.8893 320.017 68.8361 326.634 68.8361C342.32 68.8361 354.177 32.5383 352.218 5.41639C352.138 4.29851 352.98 3.32702 354.103 3.22056L357.505 2.90116C358.675 2.7947 359.704 3.65973 359.784 4.82418C361.509 31.0677 350.661 75.5367 326.045 75.5367C318.012 75.5367 312.097 70.3599 310.8 60.5917C305.721 69.7677 298.155 75.5367 289.406 75.5367C276.052 75.5367 271.086 63.8855 274.869 47.5299L274.863 47.5365Z"/>
    <path d="M110.453 62.2619C110.453 55.7476 113.828 51.8217 122.316 48.3083L133.364 43.7237C137.862 41.8406 140.115 39.8511 140.115 34.7607C140.115 29.6704 137.354 27.1219 132.542 27.1219C129.374 27.1219 127.222 28.0401 124.769 30.2825L122.316 32.525C119.148 35.3795 117.404 36.2911 115.158 36.2911C112.291 36.2911 110.453 34.6609 110.453 32.1124C110.453 26.5097 119.456 21.9317 130.397 21.9317C142.775 21.9317 148.249 26.716 147.273 37.0031L144.92 61.6497C144.459 66.5404 145.843 68.4701 148.295 68.4701C152.185 68.4701 153.616 65.01 153.616 54.317C153.616 52.9928 154.13 52.4871 155.454 52.4871H157.906C159.236 52.4871 159.744 52.9995 159.744 54.2171C159.744 68.7829 156.062 75.397 148.189 75.397C142.969 75.397 140.055 72.5424 139.44 67.0994C136.572 72.549 131.459 75.7031 124.809 75.7031C116.522 75.7031 110.44 70.8123 110.44 62.2619H110.453ZM139.507 56.7656L139.968 47.0441L126.721 52.9995C119.563 56.2067 117.618 57.0651 117.618 61.4434C117.618 65.8218 120.839 68.7762 126.667 68.7762C134.24 68.7762 139.199 63.7857 139.507 56.759V56.7656Z"/>
    <path d="M164.537 72.4492V69.1888C164.537 67.8646 165.051 67.3589 166.375 67.3589H172.617C173.947 67.3589 174.455 66.8532 174.455 65.529V35.0801C174.455 33.5497 173.64 32.7379 172.102 32.7379H166.582C164.022 32.7379 162.899 31.8196 162.899 30.0896C162.899 26.1171 169.142 21.945 174.869 21.945C178.552 21.945 179.882 23.8814 179.882 27.9536V31.2141C183.358 25.3053 188.885 21.945 196.043 21.945C205.554 21.945 210.72 26.9356 210.413 37.8349L209.597 65.5357C209.544 66.8598 210.112 67.3655 211.435 67.3655H216.755C218.085 67.3655 218.593 67.8779 218.593 69.1954V72.4559C218.593 73.7801 218.079 74.2858 216.755 74.2858H196.965C195.635 74.2858 195.127 73.7734 195.127 72.4559V69.1954C195.127 67.8713 195.642 67.3655 196.965 67.3655H201.771C203.101 67.3655 203.609 66.8598 203.609 65.5357V39.6714C203.609 31.8263 199.926 28.8785 193.276 28.8785C184.888 28.8785 180.697 34.275 180.697 43.7437V65.5357C180.697 66.8598 181.212 67.3655 182.535 67.3655H187.341C188.671 67.3655 189.179 67.8779 189.179 69.1954V72.4559C189.179 73.7801 188.664 74.2858 187.341 74.2858H166.375C165.045 74.2858 164.537 73.7734 164.537 72.4559V72.4492Z"/>
    <path d="M227.128 58.3959L228.051 33.1371C228.104 31.6067 227.743 31.3006 226.313 31.3006H220.685C219.669 31.3006 218.847 30.4822 218.847 29.4707V28.7588C218.847 27.6409 219.155 27.0287 220.278 25.6047L229.481 14.7054C231.526 12.2634 233.879 13.175 233.879 16.3357V23.6684C233.879 25.0924 234.393 25.6513 235.717 25.4983L245.007 23.5619C246.644 23.3557 247.46 23.868 247.46 25.292V29.4707C247.46 30.4822 246.638 31.3006 245.622 31.3006H235.717C234.701 31.3006 233.879 32.1191 233.879 33.1305V56.759C233.879 65.8218 237.361 68.7762 242.481 68.7762C247.6 68.7762 253.468 68.4235 255.808 54.816L258.688 54.5232C260.018 54.5232 261.328 53.412 261.328 54.6297C261.328 69.9074 250.247 75.7031 240.683 75.7031C231.118 75.7031 226.721 69.5946 227.128 58.3892V58.3959Z"/>
    <path d="M362.545 48.8207C362.545 33.1371 372.57 21.9384 386.585 21.9384C400.601 21.9384 406.837 32.4251 406.837 42.8188C406.837 45.7732 405.914 47.2969 403.154 47.2969H370.632C370.886 59.5204 375.177 67.9711 386.993 67.9711C395.074 67.9711 399.879 63.799 399.879 57.3778C399.879 56.0537 400.387 55.548 401.717 55.548H404.17C405.5 55.548 406.008 56.0537 406.008 57.278C406.008 68.1773 398.335 75.7097 386.265 75.7097C370.819 75.7097 362.531 63.8988 362.531 48.8274L362.545 48.8207ZM395.381 41.488C397.119 41.3881 398.041 40.5697 398.041 38.7398C398.041 33.9556 393.844 28.4527 385.456 28.4527C377.068 28.4527 371.808 34.9204 370.785 42.7589L395.381 41.488Z"/>
    <path d="M0 38.4338C0 15.5172 13.9085 1.57035 30.8915 1.57035C46.0299 1.57035 58.5081 11.6512 58.5081 20.4079C58.5081 24.2806 56.0553 25.1922 54.0101 25.1922C51.5572 25.1922 50.3274 23.8681 47.5671 19.8956L46.4443 18.2653C41.2244 10.6265 36.0112 8.18447 29.5682 8.18447C16.2679 8.18447 6.9643 19.4897 6.9643 36.8035C6.9643 56.1535 19.5428 68.0642 35.7104 68.0642C46.0432 68.0642 52.5865 63.0737 52.5865 55.6411C52.5865 50.9567 50.1336 47.1905 44.506 47.1905H32.3352C30.9049 47.1905 30.4972 46.5783 30.4972 45.2542V41.2817C30.4972 39.9575 31.0118 39.4518 32.3352 39.4518H56.0686C57.4989 39.4518 58.0135 40.064 58.0135 41.2817V72.1365C58.0135 73.5139 57.1447 74.2724 56.0218 74.2724C55.0527 74.2724 54.2306 73.607 53.3083 72.8485L50.3408 70.3C45.3281 73.9131 39.6003 75.6964 33.057 75.6964C14.5234 75.7031 0 61.5499 0 38.4338Z"/>
    <path d="M264.162 96.5968C324.622 94.0682 385.182 93.9817 445.648 96.3772C462.705 97.0559 479.748 97.9276 496.784 98.9922C501.082 99.2584 501.062 92.6043 496.784 92.3382C436.391 88.5653 375.845 87.2279 315.345 88.379C298.282 88.7051 281.219 89.2307 264.169 89.9427C259.885 90.1224 259.858 96.7764 264.169 96.5968H264.162Z" opacity="0.7"/>
    <path d="M482.809 70.2534C479.741 70.2534 476.74 69.0623 473.806 66.6802C470.872 64.298 468.352 60.9244 466.234 56.5527C470.872 49.4462 474.114 43.2979 475.952 38.1077C477.79 32.9175 478.712 27.1019 478.712 20.6408C478.712 14.1798 477.569 9.63504 475.283 6.40783C472.998 3.18062 469.91 1.56368 466.027 1.56368C457.572 1.56368 453.341 9.32896 453.341 24.8528C453.341 36.9233 455.045 47.2903 458.454 55.9672C453.916 62.9473 451.436 64.6174 448.716 66.221C444.786 68.53 442.527 68.5433 439.118 66.7401L439.045 66.6802C436.111 64.298 433.584 60.9244 431.472 56.5527C436.111 49.4462 439.352 43.2979 441.19 38.1077C443.028 32.9175 443.951 27.1019 443.951 20.6408C443.951 14.1798 442.808 9.63504 440.522 6.40783C438.236 3.18062 435.148 1.56368 431.265 1.56368C422.81 1.56368 418.58 9.32896 418.58 24.8528C418.58 36.9233 420.284 47.2903 423.693 55.9672C421.313 59.5005 417.063 65.3959 410.954 73.6603C410.252 74.6118 410.954 75.9293 412.177 75.9293H415.084C416.822 75.9293 418.446 75.1109 419.422 73.7401L427.068 63.0204C429.661 67.4587 431.76 70.1735 435.269 72.5224C436.793 73.5405 437.701 73.7002 439.326 74.2791C443.396 75.723 448.923 74.9512 452.432 72.5158C456.496 69.6945 461.816 63.0204 461.816 63.0204C464.409 67.4587 467.457 70.8456 470.972 73.1945C474.481 75.5434 478.251 76.7145 482.274 76.7145C482.769 76.7145 483.243 76.7012 483.705 76.6746C485.944 76.5481 487.695 74.7915 487.695 72.6489V71.0718C487.695 70.3532 487.013 69.8076 486.271 69.954C485.255 70.1536 484.092 70.2534 482.782 70.2534H482.809ZM425.858 28.0867L425.958 24.8595C426.166 18.791 426.707 14.4725 427.596 11.8974C428.485 9.3223 429.708 8.03142 431.279 8.03142C432.849 8.03142 434.039 8.96298 435.061 10.8195C436.084 12.6759 436.599 15.9897 436.599 20.7473C436.599 26.0972 436.051 30.7616 434.961 34.7408C433.872 38.7199 431.72 43.3178 428.518 48.5346C426.747 42.4062 425.858 35.5858 425.858 28.0867ZM460.606 28.0867L460.706 24.8595C460.914 18.791 461.455 14.4725 462.344 11.8974C463.226 9.3223 464.456 8.03142 466.027 8.03142C467.597 8.03142 468.787 8.96298 469.809 10.8195C470.832 12.6759 471.347 15.9897 471.347 20.7473C471.347 26.0972 470.799 30.7616 469.709 34.7408C468.62 38.7199 466.468 43.3178 463.266 48.5346C461.495 42.4062 460.606 35.5858 460.606 28.0867Z"/>
  </svg>
</svg>
