<svg preserveAspectRatio="none" width="100%" height="100%" overflow="visible" style="display: block;" viewBox="0 0 153 25" fill="none" xmlns="http://www.w3.org/2000/svg">
<g id="reboot">
<g id="on/off icon">
<path id="Vector" d="M6.39629 5.94319C7.08437 5.31715 7.13975 4.2455 6.5195 3.55028C5.91518 2.87312 4.88858 2.79968 4.19704 3.38584C-0.884014 7.84162 -1.42742 15.6149 2.98146 20.7485C7.39034 25.882 15.0832 26.4319 20.1635 21.9761C25.2439 17.5204 25.7881 9.74772 21.3785 4.61418C20.9811 4.15184 20.5499 3.71954 20.0888 3.32147C19.3848 2.71367 18.3264 2.7976 17.7241 3.50898C17.1226 4.22036 17.2056 5.28984 17.9096 5.8984C19.8749 7.59259 21.006 10.0723 21.0054 12.682C21.0054 17.5994 17.0458 21.6005 12.1792 21.6005C7.31281 21.6005 3.35319 17.598 3.35319 12.6807C3.35319 10.096 4.46285 7.63805 6.3949 5.94386" fill="var(--fill-0, #32A49C)"/>
<path id="Vector_2" d="M13.9202 13.4369V1.6879C13.9202 0.761792 13.1409 0.0108625 12.1801 0.0108625C11.2192 0.0108625 10.4401 0.761792 10.4401 1.6879V13.4369C10.4401 14.363 11.2192 15.114 12.1801 15.114C13.1409 15.114 13.9202 14.363 13.9202 13.4369Z" fill="var(--fill-0, #32A49C)"/>
</g>
<path id="reboot_2" d="M56.5499 10.1021C56.5499 10.857 56.3504 11.5342 55.9513 12.1336C55.7961 12.3557 55.519 12.6665 55.12 13.0662C54.7209 13.4436 54.3994 13.7212 54.1556 13.8988C53.8674 14.1208 53.5792 14.2762 53.291 14.365L57.2482 22.4913H53.4573L49.7661 14.6315H45.942V22.4913H42.4503V2.5753H51.7946C52.6813 2.5753 53.4683 2.8195 54.1556 3.30799C54.3772 3.46344 54.6877 3.75202 55.0867 4.17391C55.5079 4.59579 55.7961 4.91768 55.9513 5.13973C56.3504 5.73921 56.5499 6.41637 56.5499 7.1713V10.1021ZM53.0582 10.0688V7.2046C53.0582 7.09361 53.0471 7.01585 53.025 6.97147C52.6481 6.30539 52.2934 5.95011 51.9609 5.90573H45.942V11.301H51.7946C51.9497 11.301 52.1604 11.1789 52.4264 10.9347C52.6924 10.6905 52.892 10.4462 53.025 10.202C53.0471 10.1576 53.0582 10.1132 53.0582 10.0688ZM74.876 22.4913H62.3726V2.5753H74.876V5.90573H65.8642V10.9347H74.2442V14.2651H65.8642V19.1609H74.876V22.4913ZM94.2501 17.9619C94.2501 18.739 94.0622 19.4051 93.6848 19.9602C93.5301 20.1822 93.2525 20.5041 92.8534 20.926C92.4544 21.3256 92.1443 21.6032 91.9223 21.7586C91.2356 22.2471 90.4375 22.4913 89.528 22.4913H80.1841V2.5753H89.528C90.3926 2.5753 91.1907 2.83066 91.9223 3.3413C92.1443 3.49675 92.4544 3.78533 92.8534 4.20721C93.2525 4.60686 93.5301 4.91768 93.6848 5.13973C94.0622 5.69483 94.2501 6.38307 94.2501 7.2046V9.66912C94.2501 10.7349 93.8178 11.7007 92.9532 12.5666C93.8178 13.4325 94.2501 14.3873 94.2501 15.4308V17.9619ZM90.7252 9.83564C90.7476 9.79127 90.7584 9.7135 90.7584 9.60252V7.23791L90.7252 7.07138C90.5705 6.80495 90.3594 6.54959 90.0934 6.30538C89.8498 6.03895 89.6503 5.90573 89.4948 5.90573H83.6754V10.9347H89.528C89.6835 10.9347 89.8938 10.8125 90.1599 10.5683C90.4259 10.3241 90.6146 10.0798 90.7252 9.83564ZM90.7252 18.0618C90.7476 17.9952 90.7584 17.9175 90.7584 17.8287V15.4641L90.7252 15.2976C90.5705 15.0311 90.3594 14.7758 90.0934 14.5316C89.8498 14.2874 89.6503 14.1652 89.4948 14.1652H83.6754V19.1609H89.528C89.6835 19.1609 89.8938 19.0387 90.1599 18.7945C90.4259 18.5503 90.6146 18.306 90.7252 18.0618ZM114.425 17.7621C114.425 18.4948 114.248 19.1276 113.893 19.6604C113.627 20.0157 113.228 20.4597 112.696 20.9926C112.186 21.5255 111.776 21.8807 111.465 22.0583C110.823 22.458 110.135 22.6578 109.404 22.6578H104.349C103.618 22.6578 102.93 22.458 102.287 22.0583C101.977 21.8807 101.545 21.5255 100.991 20.9926C100.459 20.4375 100.082 19.9935 99.86 19.6604C99.505 19.1276 99.3279 18.4948 99.3279 17.7621V7.33782C99.3279 6.60512 99.505 5.97234 99.86 5.43947C100.082 5.10643 100.459 4.67347 100.991 4.1406C101.545 3.5855 101.977 3.21915 102.287 3.04156C102.93 2.64191 103.618 2.44208 104.349 2.44208H109.404C110.135 2.44208 110.823 2.64191 111.465 3.04156C111.776 3.21915 112.186 3.57443 112.696 4.1073C113.228 4.64017 113.627 5.0842 113.893 5.43947C114.248 5.97234 114.425 6.60512 114.425 7.33782V17.7621ZM102.82 7.43773V17.7288C102.82 17.7954 102.83 17.8398 102.853 17.862C103.296 18.5281 103.784 19.0054 104.316 19.2941C104.36 19.3163 104.416 19.3274 104.482 19.3274H109.271C109.337 19.3274 109.393 19.3163 109.437 19.2941C109.969 19.0054 110.457 18.5281 110.9 17.862L110.933 17.7288V7.43773C110.933 7.34889 110.923 7.29344 110.9 7.27121C110.435 6.58289 109.947 6.09448 109.437 5.80582C109.393 5.78359 109.337 5.77252 109.271 5.77252H104.482C104.393 5.77252 104.338 5.78359 104.316 5.80582C103.806 6.09448 103.318 6.58289 102.853 7.27121L102.82 7.43773ZM134.672 17.7621C134.672 18.4948 134.494 19.1276 134.14 19.6604C133.874 20.0157 133.475 20.4597 132.943 20.9926C132.433 21.5255 132.023 21.8807 131.713 22.0583C131.069 22.458 130.383 22.6578 129.651 22.6578H124.597C123.865 22.6578 123.177 22.458 122.535 22.0583C122.224 21.8807 121.792 21.5255 121.238 20.9926C120.706 20.4375 120.328 19.9935 120.107 19.6604C119.752 19.1276 119.575 18.4948 119.575 17.7621V7.33782C119.575 6.60512 119.752 5.97234 120.107 5.43947C120.328 5.10643 120.706 4.67347 121.238 4.1406C121.792 3.5855 122.224 3.21915 122.535 3.04156C123.177 2.64191 123.865 2.44208 124.597 2.44208H129.651C130.383 2.44208 131.069 2.64191 131.713 3.04156C132.023 3.21915 132.433 3.57443 132.943 4.1073C133.475 4.64017 133.874 5.0842 134.14 5.43947C134.494 5.97234 134.672 6.60512 134.672 7.33782V17.7621ZM123.067 7.43773V17.7288C123.067 17.7954 123.078 17.8398 123.1 17.862C123.543 18.5281 124.031 19.0054 124.563 19.2941C124.607 19.3163 124.663 19.3274 124.73 19.3274H129.518C129.585 19.3274 129.639 19.3163 129.684 19.2941C130.216 19.0054 130.704 18.5281 131.148 17.862L131.181 17.7288V7.43773C131.181 7.34889 131.169 7.29344 131.148 7.27121C130.682 6.58289 130.194 6.09448 129.684 5.80582C129.639 5.78359 129.585 5.77252 129.518 5.77252H124.73C124.641 5.77252 124.585 5.78359 124.563 5.80582C124.053 6.09448 123.566 6.58289 123.1 7.27121L123.067 7.43773ZM152.99 5.90573H147.603V22.4913H144.111V5.90573H138.724V2.5753H152.99V5.90573Z" fill="var(--fill-0, #F8F6F1)"/>
</g>
</svg>
