<svg preserveAspectRatio="none" width="100%" height="100%" overflow="visible" style="display: block;" viewBox="0 0 13.4569 13.5794" fill="none" xmlns="http://www.w3.org/2000/svg">
<path id="Vector" d="M6.44481 8.53352L2.77113 0.191545C2.71955 0.0758224 2.6045 0 2.47954 0H0.319364C0.142821 0 0 0.143664 0 0.321238V13.2582C0 13.4358 0.142821 13.5794 0.319364 13.5794H2.06298C2.23952 13.5794 2.38234 13.4358 2.38234 13.2582V6.16121C2.38234 5.81405 2.85444 5.7123 2.99528 6.03153L5.82195 12.4661C5.87352 12.5818 5.98857 12.6576 6.11354 12.6576H7.32753C7.45249 12.6576 7.56754 12.5838 7.61911 12.4681L10.4855 6.0455C10.6263 5.72826 11.0964 5.83001 11.0964 6.17718V13.2582C11.0964 13.4358 11.2392 13.5794 11.4158 13.5794H13.1376C13.3141 13.5794 13.4569 13.4358 13.4569 13.2582V0.321238C13.4569 0.143664 13.3141 0 13.1376 0H10.9774C10.8504 0 10.7354 0.0758224 10.6838 0.191545L7.028 8.53352C6.91691 8.78891 6.55589 8.78891 6.44282 8.53352H6.44481Z" fill="var(--fill-0, #FDFCFB)"/>
</svg>
