<svg preserveAspectRatio="none" width="100%" height="100%" overflow="visible" style="display: block;" viewBox="0 0 10.1704 13.5794" fill="none" xmlns="http://www.w3.org/2000/svg">
<path id="Vector" d="M2.67988 8.336H4.80832C4.92734 8.336 5.03643 8.40184 5.09198 8.50958L7.62507 13.4058C7.68061 13.5116 7.78971 13.5794 7.90873 13.5794H9.8507C10.0927 13.5794 10.2454 13.322 10.1324 13.1065L7.58341 8.28212C7.5001 8.12251 7.5616 7.92698 7.72227 7.84517C8.29752 7.55387 8.77359 7.15084 9.15048 6.63608C9.66027 5.93975 9.91418 5.11373 9.91418 4.15803C9.91418 3.52953 9.80309 2.95691 9.57894 2.43815C9.35479 1.9194 9.04535 1.47845 8.65259 1.11732C8.25785 0.756186 7.78971 0.478851 7.24818 0.287311C6.70466 0.0957706 6.11553 0 5.4768 0H0.319367C0.142824 0 0 0.143658 0 0.321232V13.2582C0 13.4358 0.142824 13.5794 0.319367 13.5794H2.04116C2.2177 13.5794 2.36052 13.4358 2.36052 13.2582V8.65723C2.36052 8.47965 2.50334 8.336 2.67988 8.336ZM6.87129 2.70351C7.27198 3.07262 7.47233 3.55747 7.47233 4.15803C7.47233 4.75858 7.27198 5.2534 6.87129 5.64246C6.4706 6.03153 5.937 6.22506 5.27249 6.22506H2.67988C2.50334 6.22506 2.36052 6.08141 2.36052 5.90384V2.47207C2.36052 2.2945 2.50334 2.15084 2.67988 2.15084H5.27249C5.937 2.15084 6.4706 2.33439 6.87129 2.70351Z" fill="var(--fill-0, #FDFCFB)"/>
</svg>
