<svg preserveAspectRatio="none" width="100%" height="100%" overflow="visible" style="display: block;" viewBox="0 0 9.67019 13.5794" fill="none" xmlns="http://www.w3.org/2000/svg">
<path id="Vector" d="M8.482 1.18715C8.10907 0.804073 7.6568 0.510782 7.12717 0.30727C6.59755 0.101764 6.01436 0 5.37563 0H0.319361C0.142818 0 0 0.143664 0 0.321238V13.2582C0 13.4358 0.142818 13.5794 0.319361 13.5794H2.04116C2.2177 13.5794 2.36052 13.4358 2.36052 13.2582V8.92459C2.36052 8.74702 2.50334 8.60335 2.67988 8.60335H5.37365C6.01238 8.60335 6.59557 8.49362 7.12519 8.27615C7.65482 8.05867 8.1051 7.7534 8.48001 7.36433C8.85293 6.97527 9.14453 6.51836 9.35479 5.99163C9.56506 5.46689 9.67019 4.89625 9.67019 4.28173C9.67019 3.6672 9.56506 3.07662 9.35479 2.55188C9.14453 2.02714 8.85293 1.57223 8.48001 1.18915L8.482 1.18715ZM6.68086 5.78611C6.31389 6.20311 5.79815 6.41062 5.13363 6.41062H2.68385C2.50731 6.41062 2.36449 6.26696 2.36449 6.08939V2.51397C2.36449 2.3364 2.50731 2.19275 2.68385 2.19275H5.13363C5.79815 2.19275 6.31389 2.39027 6.68086 2.78732C7.04783 3.18436 7.23033 3.68117 7.23033 4.28173C7.23033 4.88229 7.04783 5.37111 6.68086 5.78611Z" fill="var(--fill-0, #FDFCFB)"/>
</svg>
