<svg preserveAspectRatio="none" width="100%" height="100%" overflow="visible" style="display: block;" viewBox="0 0 12.6441 13.5814" fill="none" xmlns="http://www.w3.org/2000/svg">
<path id="Vector" d="M4.89086 0.209495L0.0210556 13.1464C-0.0582895 13.3559 0.0964354 13.5814 0.320585 13.5814H2.15742C2.29231 13.5814 2.41331 13.4956 2.45894 13.3679L3.31784 10.9677C3.36347 10.84 3.48447 10.7542 3.61935 10.7542H8.99301C9.12789 10.7542 9.24691 10.838 9.29253 10.9657L10.1673 13.3699C10.2129 13.4976 10.3339 13.5814 10.4668 13.5814H12.3235C12.5477 13.5814 12.7024 13.3559 12.623 13.1444L7.71555 0.207498C7.66794 0.0837945 7.54892 0 7.41602 0H5.19039C5.05749 0 4.93847 0.0817993 4.89086 0.207498V0.209495ZM6.60273 3.54349L8.40585 8.31205C8.48519 8.52154 8.33048 8.749 8.10633 8.749H4.51397C4.28982 8.749 4.1351 8.52354 4.21444 8.31404L6.00368 3.54548C6.10683 3.26815 6.4976 3.26815 6.60075 3.54548L6.60273 3.54349Z" fill="var(--fill-0, #FDFCFB)"/>
</svg>
