<svg preserveAspectRatio="none" width="100%" height="100%" overflow="visible" style="display: block;" viewBox="0 0 12.0186 13.9904" fill="none" xmlns="http://www.w3.org/2000/svg">
<path id="Vector" d="M8.69622 11.1213C8.0575 11.5044 7.35133 11.6939 6.57771 11.6939C5.96675 11.6939 5.40935 11.5742 4.90749 11.3348C4.40564 11.0954 3.97321 10.7682 3.61417 10.3512C3.25513 9.93416 2.97346 9.43735 2.76914 8.85675C2.56483 8.27614 2.46366 7.65164 2.46366 6.98324C2.46366 6.31484 2.56285 5.69632 2.75923 5.12968C2.95561 4.56304 3.23331 4.06824 3.59433 3.64526C3.95337 3.22227 4.38183 2.89106 4.87774 2.65163C5.37365 2.41221 5.93303 2.2925 6.55787 2.2925C7.3176 2.2925 7.99997 2.48404 8.60498 2.86512C9.13461 3.20032 9.61068 3.68915 10.0312 4.32961C10.1304 4.47925 10.3327 4.51716 10.4775 4.4154L11.8323 3.46768C11.9732 3.36991 12.0109 3.17638 11.9196 3.03073C11.6578 2.60575 11.3642 2.22267 11.0369 1.88348C10.6422 1.47446 10.2078 1.13328 9.73366 0.859936C9.25759 0.586592 8.74978 0.375101 8.20627 0.22546C7.66275 0.075819 7.09941 0 6.51622 0C5.59383 0 4.73492 0.17757 3.93948 0.532718C3.14603 0.887866 2.45374 1.37869 1.86262 2.00718C1.2715 2.63567 0.813286 3.3759 0.487971 4.22985C0.162656 5.0838 0 6.0016 0 6.98524C0 7.96888 0.166623 8.90662 0.499872 9.76057C0.833122 10.6145 1.29333 11.3547 1.88445 11.9832C2.47557 12.6117 3.16984 13.1026 3.97122 13.4577C4.77261 13.8129 5.64144 13.9904 6.57771 13.9904C7.14701 13.9904 7.70441 13.9186 8.24792 13.7749C8.79144 13.6313 9.30321 13.4198 9.78523 13.1405C10.2673 12.8611 10.7076 12.5199 11.1083 12.1169C11.4416 11.7817 11.7292 11.4066 11.9732 10.9916C12.0565 10.848 12.0228 10.6664 11.8918 10.5666L10.6184 9.61093C10.4736 9.50119 10.2673 9.53511 10.1641 9.68675C9.7416 10.3132 9.25164 10.7921 8.69424 11.1253L8.69622 11.1213Z" fill="var(--fill-0, #FDFCFB)"/>
</svg>
