<svg preserveAspectRatio="none" width="100%" height="100%" overflow="visible" style="display: block;" viewBox="0 0 10.3605 13.5794" fill="none" xmlns="http://www.w3.org/2000/svg">
<path id="Vector" d="M10.0451 0H0.319361C0.142818 0 0 0.143664 0 0.321238V1.91142C0 2.08899 0.142818 2.23264 0.319361 2.23264H3.64987C3.82641 2.23264 3.96924 2.37631 3.96924 2.55388V13.2582C3.96924 13.4358 4.11206 13.5794 4.2886 13.5794H6.01039C6.18693 13.5794 6.32975 13.4358 6.32975 13.2582V2.55388C6.32975 2.37631 6.47257 2.23264 6.64911 2.23264H10.0411C10.2177 2.23264 10.3605 2.08899 10.3605 1.91142V0.321238C10.3605 0.143664 10.2177 0 10.0411 0H10.0451Z" fill="var(--fill-0, #FDFCFB)"/>
</svg>
