<svg preserveAspectRatio="none" width="100%" height="100%" overflow="visible" style="display: block;" viewBox="0 0 12.6441 13.5814" fill="none" xmlns="http://www.w3.org/2000/svg">
<path id="Vector" d="M9.29253 10.9657L10.1673 13.3699C10.2129 13.4976 10.3339 13.5814 10.4668 13.5814H12.3235C12.5477 13.5814 12.7024 13.3559 12.623 13.1445L7.71555 0.207504C7.66794 0.0838006 7.54892 0 7.41602 0H5.19039C5.05749 0 4.93847 0.0818054 4.89086 0.207504L0.0210559 13.1445C-0.0582893 13.354 0.0964326 13.5794 0.320583 13.5794H2.15742C2.29231 13.5794 2.41331 13.4936 2.45893 13.3659L3.31784 10.9657C3.36347 10.838 3.48447 10.7522 3.61936 10.7522H8.993C9.12789 10.7522 9.24691 10.836 9.29253 10.9637V10.9657ZM6.60472 3.5415L8.40784 8.31005C8.48718 8.51955 8.33246 8.74701 8.10831 8.74701H4.51596C4.29181 8.74701 4.13708 8.52155 4.21643 8.31205L6.00566 3.5435C6.10881 3.26616 6.49958 3.26616 6.60273 3.5435L6.60472 3.5415Z" fill="var(--fill-0, #FDFCFB)"/>
</svg>
