<svg preserveAspectRatio="none" width="100%" height="100%" overflow="visible" style="display: block;" viewBox="0 0 8.8569 13.5794" fill="none" xmlns="http://www.w3.org/2000/svg">
<path id="Vector" d="M2.7017 7.75937H7.13313C7.30967 7.75937 7.45249 7.61572 7.45249 7.43815V5.93177C7.45249 5.75419 7.30967 5.61054 7.13313 5.61054H2.7017C2.52516 5.61054 2.38234 5.46689 2.38234 5.28931V2.49202C2.38234 2.31445 2.52516 2.1708 2.7017 2.1708H8.53753C8.71408 2.1708 8.8569 2.02713 8.8569 1.84956V0.321232C8.8569 0.143658 8.71408 0 8.53753 0H0.319361C0.142818 0 0 0.143658 0 0.321232V13.2582C0 13.4358 0.142818 13.5794 0.319361 13.5794H2.06297C2.23951 13.5794 2.38234 13.4358 2.38234 13.2582V8.08459C2.38234 7.90702 2.52516 7.76337 2.7017 7.76337V7.75937Z" fill="var(--fill-0, #FDFCFB)"/>
</svg>
