<svg preserveAspectRatio="none" width="100%" height="100%" overflow="visible" style="display: block;" viewBox="0 0 13.0305 13.9924" fill="none" xmlns="http://www.w3.org/2000/svg">
<path id="Vector" d="M1.85271 12.0451C2.4359 12.6596 3.12818 13.1385 3.92957 13.4797C4.73095 13.8208 5.59978 13.9924 6.53606 13.9924C7.47233 13.9924 8.36099 13.8208 9.16238 13.4797C9.96376 13.1385 10.6481 12.6596 11.2194 12.0451C11.7887 11.4306 12.235 10.6943 12.5524 9.8324C12.8718 8.97247 13.0305 8.03073 13.0305 7.00519C13.0305 5.97965 12.8698 5.05986 12.5524 4.19992C12.233 3.33999 11.7887 2.59976 11.2194 1.97726C10.6501 1.35674 9.96376 0.871906 9.16238 0.522744C8.36099 0.173582 7.48621 0 6.53606 0C5.5859 0 4.69326 0.173582 3.89981 0.522744C3.10636 0.871906 2.41606 1.35475 1.83287 1.97726C1.24969 2.59976 0.797419 3.33999 0.478055 4.19992C0.158691 5.05986 0 6.0016 0 7.02713C0 8.05267 0.162659 8.97247 0.487974 9.8324C0.813289 10.6923 1.26754 11.4306 1.85271 12.0451ZM2.77906 5.09178C2.97544 4.51117 3.25117 4.01636 3.60425 3.60734C3.95734 3.19832 4.38382 2.8731 4.88766 2.63368C5.38952 2.39425 5.93899 2.27454 6.53606 2.27454C7.13313 2.27454 7.70045 2.39026 8.19635 2.6237C8.69226 2.85515 9.11874 3.18037 9.47976 3.59737C9.8388 4.01437 10.1145 4.51317 10.305 5.09178C10.4954 5.67238 10.5906 6.30287 10.5906 6.98723C10.5906 7.67159 10.4954 8.32203 10.305 8.90264C10.1145 9.48324 9.84276 9.98205 9.48968 10.397C9.13659 10.814 8.70813 11.1373 8.20627 11.3707C7.70441 11.6022 7.14701 11.7199 6.53606 11.7199C5.9251 11.7199 5.38952 11.6042 4.88766 11.3707C4.3858 11.1393 3.95734 10.814 3.60425 10.397C3.25117 9.98005 2.97544 9.48324 2.77906 8.90264C2.58269 8.32203 2.4835 7.68356 2.4835 6.98723C2.4835 6.2909 2.58269 5.67238 2.77906 5.09178Z" fill="var(--fill-0, #FDFCFB)"/>
</svg>
