<svg preserveAspectRatio="none" width="100%" height="100%" overflow="visible" style="display: block;" viewBox="0 0 96.214 96.3834" fill="none" xmlns="http://www.w3.org/2000/svg">
<g id="Group">
<path id="Vector" d="M1.79007 55.626L40.6852 94.5913C41.2259 95.133 42.1027 95.133 42.6435 94.5913L94.4246 42.7168C94.9654 42.175 94.9654 41.2966 94.4246 40.7549L55.5296 1.78964C54.9888 1.24788 54.112 1.24788 53.5712 1.78964L1.79007 53.6641C1.24929 54.2059 1.24928 55.0843 1.79007 55.626Z" fill="var(--fill-0, #FDFCFB)"/>
<path id="Vector_2" d="M41.665 96.3834C40.956 96.3834 40.247 96.1143 39.707 95.5732L0.811483 56.6076C0.288039 56.0832 0 55.3868 0 54.646C0 53.9052 0.288039 53.2088 0.811483 52.6844L52.5909 0.811553C53.671 -0.270518 55.4269 -0.270518 56.507 0.811553L95.4025 39.7772C95.926 40.3016 96.214 40.998 96.214 41.7388C96.214 42.4796 95.926 43.176 95.4025 43.7004L43.6231 95.5732C43.0831 96.1143 42.3741 96.3834 41.665 96.3834ZM54.549 2.77038L2.76955 54.646L41.665 93.6116L93.4445 41.7388L54.549 2.77316V2.77038Z" fill="var(--fill-0, #DFECE0)"/>
</g>
</svg>
