<svg preserveAspectRatio="none" width="100%" height="100%" overflow="visible" style="display: block;" viewBox="0 0 49.8457 50.0427" fill="none" xmlns="http://www.w3.org/2000/svg">
<g id="Group">
<path id="Vector" d="M45.8149 18.8985C45.4465 18.8985 45.0782 18.7514 44.804 18.4601L29.7155 2.33723C29.1921 1.77955 29.2198 0.900023 29.7792 0.375635C30.3359 -0.148754 31.2139 -0.121009 31.7373 0.439448L46.8258 16.5623C47.3492 17.12 47.3215 17.9995 46.7621 18.5239C46.4962 18.7736 46.1556 18.8985 45.8149 18.8985Z" fill="var(--fill-0, #B2D6C9)"/>
<path id="Vector_2" d="M48.4598 33.5064C48.0915 33.5064 47.7231 33.3594 47.4489 33.068L23.8496 7.85024C23.3262 7.29256 23.3539 6.41303 23.9133 5.88864C24.47 5.36426 25.348 5.392 25.8714 5.95246L49.4707 31.1703C49.9942 31.7279 49.9665 32.6075 49.407 33.1319C49.1411 33.3816 48.8005 33.5064 48.4598 33.5064Z" fill="var(--fill-0, #B2D6C9)"/>
<path id="Vector_3" d="M42.5912 39.0194C42.2228 39.0194 41.8545 38.8724 41.5803 38.5811L17.981 13.3633C17.4575 12.8056 17.4852 11.926 18.0447 11.4017C18.6013 10.8773 19.4793 10.905 20.0027 11.4655L43.602 36.6833C44.1255 37.241 44.0978 38.1205 43.5383 38.6449C43.2725 38.8946 42.9318 39.0194 42.5912 39.0194Z" fill="var(--fill-0, #B2D6C9)"/>
<path id="Vector_4" d="M36.7225 44.5297C36.3541 44.5297 35.9858 44.3826 35.7116 44.0913L12.1123 18.8735C11.5889 18.3158 11.6165 17.4363 12.176 16.9119C12.7327 16.3875 13.6106 16.4153 14.1341 16.9757L37.7334 42.1935C38.2568 42.7512 38.2291 43.6307 37.6697 44.1551C37.4038 44.4048 37.0631 44.5297 36.7225 44.5297Z" fill="var(--fill-0, #B2D6C9)"/>
<path id="Vector_5" d="M30.8538 50.0427C30.4855 50.0427 30.1171 49.8956 29.8429 49.6043L6.24363 24.3865C5.72018 23.8288 5.74788 22.9493 6.30733 22.4249C6.864 21.9005 7.74195 21.9283 8.26539 22.4887L31.8647 47.7065C32.3881 48.2642 32.3604 49.1437 31.801 49.6681C31.5351 49.9178 31.1945 50.0427 30.8538 50.0427Z" fill="var(--fill-0, #B2D6C9)"/>
<path id="Vector_6" d="M11.3922 41.0282C11.0239 41.0282 10.6555 40.8812 10.3813 40.5898L0.374958 29.8967C-0.148486 29.3391 -0.120791 28.4595 0.438657 27.9351C0.995336 27.4108 1.87328 27.4385 2.39673 27.999L12.4031 38.692C12.9265 39.2497 12.8988 40.1293 12.3394 40.6536C12.0735 40.9033 11.7329 41.0282 11.3922 41.0282Z" fill="var(--fill-0, #B2D6C9)"/>
</g>
</svg>
