<svg preserveAspectRatio="none" width="100%" height="100%" overflow="visible" style="display: block;" viewBox="0 0 85.8122 70.4742" fill="none" xmlns="http://www.w3.org/2000/svg">
<g id="Group">
<path id="Vector" d="M76.6323 67.8951L84.4113 13.3438C84.5194 12.5853 83.9933 11.8826 83.2362 11.7743L10.7426 1.3995C9.98554 1.29115 9.28411 1.81817 9.17595 2.57664L1.39703 57.128C1.28888 57.8864 1.81496 58.5891 2.57206 58.6975L75.0657 69.0723C75.8228 69.1806 76.5242 68.6536 76.6323 67.8951Z" fill="var(--fill-0, #FDFCFB)"/>
<path id="Vector_2" d="M75.266 70.4742C75.1358 70.4742 75.0057 70.4658 74.8727 70.4464L2.37987 60.0724C1.64871 59.967 1.00064 59.5841 0.55474 58.9903C0.111612 58.3966 -0.0767192 57.6669 0.0285235 56.9344L7.80818 2.38416C7.91342 1.65168 8.29562 1.00244 8.8883 0.555737C9.48099 0.111811 10.2094 -0.0768573 10.9405 0.0285753L83.4334 10.4026C84.9456 10.619 85.998 12.0285 85.7847 13.5406L78.0051 68.0908C77.8084 69.4725 76.6203 70.4742 75.266 70.4742ZM10.55 2.77537L2.77038 57.3284L75.2632 67.7024L83.0429 13.1521L10.55 2.77537Z" fill="var(--fill-0, #DFECE0)"/>
</g>
</svg>
