<svg preserveAspectRatio="none" width="100%" height="100%" overflow="visible" style="display: block;" viewBox="0 0 44.6538 41.5523" fill="none" xmlns="http://www.w3.org/2000/svg">
<g id="Group">
<path id="Vector" d="M40.1503 30.3487C40.0838 30.3487 40.0201 30.3432 39.9537 30.3349C39.1976 30.2267 38.6714 29.5247 38.7794 28.7645L41.8979 6.88723C42.0059 6.12978 42.7066 5.60262 43.4655 5.71082C44.2215 5.81903 44.7478 6.52099 44.6398 7.28121L41.5212 29.1585C41.4215 29.8493 40.8289 30.3487 40.1531 30.3487H40.1503Z" fill="var(--fill-0, #B2D6C9)"/>
<path id="Vector_2" d="M30.4264 41.5523C30.36 41.5523 30.2963 41.5468 30.2298 41.5385C29.4737 41.4303 28.9475 40.7283 29.0555 39.9681L33.9355 5.74967C34.0435 4.99222 34.7442 4.46505 35.503 4.57326C36.2591 4.68147 36.7853 5.38343 36.6773 6.14365L31.7974 40.3621C31.6977 41.0529 31.105 41.5523 30.4292 41.5523H30.4264Z" fill="var(--fill-0, #B2D6C9)"/>
<path id="Vector_3" d="M22.464 40.4148C22.3975 40.4148 22.3338 40.4092 22.2674 40.4009C21.5113 40.2927 20.9851 39.5907 21.0931 38.8305L25.973 4.61211C26.081 3.85466 26.7845 3.32472 27.5406 3.4357C28.2967 3.54391 28.8229 4.24587 28.7149 5.00609L23.8349 39.2245C23.7352 39.9154 23.1425 40.4148 22.4668 40.4148H22.464Z" fill="var(--fill-0, #B2D6C9)"/>
<path id="Vector_4" d="M14.5016 39.2744C14.4351 39.2744 14.3714 39.2689 14.3049 39.2606C13.5488 39.1524 13.0226 38.4504 13.1306 37.6902L18.0106 3.47177C18.1186 2.71155 18.822 2.18716 19.5781 2.29537C20.3342 2.40357 20.8604 3.10553 20.7524 3.86575L15.8725 38.0842C15.7728 38.775 15.1801 39.2744 14.5043 39.2744H14.5016Z" fill="var(--fill-0, #B2D6C9)"/>
<path id="Vector_5" d="M6.53634 38.1341C6.46987 38.1341 6.40617 38.1286 6.3397 38.1202C5.58361 38.012 5.0574 37.3101 5.16542 36.5498L10.0454 2.33143C10.1534 1.57398 10.8568 1.04682 11.6129 1.15503C12.369 1.26323 12.8952 1.96519 12.7872 2.72542L7.90726 36.9438C7.80756 37.6347 7.21488 38.1341 6.53911 38.1341H6.53634Z" fill="var(--fill-0, #B2D6C9)"/>
<path id="Vector_6" d="M1.38498 17.2834C1.31851 17.2834 1.25481 17.2779 1.18834 17.2696C0.432256 17.1614 -0.0939555 16.4594 0.0140568 15.6992L2.08291 1.1911C2.19092 0.433648 2.89439 -0.0962882 3.65047 0.0146934C4.40656 0.122901 4.93277 0.82486 4.82476 1.58508L2.75591 16.0932C2.6562 16.784 2.06352 17.2834 1.38775 17.2834H1.38498Z" fill="var(--fill-0, #B2D6C9)"/>
</g>
</svg>
