<svg preserveAspectRatio="none" width="100%" height="100%" overflow="visible" style="display: block;" viewBox="0 0 93.6308 83.3189" fill="none" xmlns="http://www.w3.org/2000/svg">
<g id="Group">
<path id="Vector" d="M72.4026 81.0346L92.1508 29.6033C92.4254 28.8882 92.0693 28.0856 91.3555 27.8105L23.0082 1.47223C22.2944 1.19716 21.4931 1.55386 21.2186 2.26895L1.47035 53.7002C1.19578 54.4153 1.55184 55.218 2.26564 55.4931L70.613 81.8313C71.3268 82.1064 72.128 81.7497 72.4026 81.0346Z" fill="var(--fill-0, #FDFCFB)"/>
<path id="Vector_2" d="M71.1177 83.3162C70.7826 83.3162 70.4447 83.2551 70.1234 83.1303L1.77656 56.7943C1.08694 56.528 0.541342 56.0091 0.239461 55.3321C-0.0596496 54.6551 -0.0790398 53.9005 0.184067 53.2096L19.9309 1.77795C20.4793 0.349064 22.0856 -0.363992 23.5092 0.185367L91.856 26.5213C93.2824 27.0707 93.9941 28.6799 93.4458 30.106L73.6989 81.5377C73.433 82.2285 72.9151 82.7751 72.2394 83.0775C71.8793 83.2385 71.4971 83.3189 71.1149 83.3189L71.1177 83.3162ZM22.5149 2.77401L2.76806 54.2084L71.1177 80.5416L90.8646 29.11L22.5177 2.77401H22.5149Z" fill="var(--fill-0, #DFECE0)"/>
</g>
</svg>
