<svg preserveAspectRatio="none" width="100%" height="100%" overflow="visible" style="display: block;" viewBox="0 0 45.5588 46.6108" fill="none" xmlns="http://www.w3.org/2000/svg">
<g id="Group">
<path id="Vector" d="M36.2547 37.8627C36.0885 37.8627 35.9223 37.8322 35.7589 37.7711C35.0444 37.4964 34.6899 36.6946 34.964 35.9788L42.8822 15.3528C43.1564 14.637 43.9568 14.2819 44.6713 14.5565C45.3858 14.8312 45.7403 15.6331 45.4662 16.3489L37.548 36.9748C37.3375 37.527 36.8113 37.8654 36.2547 37.8654V37.8627Z" fill="var(--fill-0, #B2D6C9)"/>
<path id="Vector_2" d="M24.2791 46.608C24.113 46.608 23.9468 46.5775 23.7834 46.5165C23.0688 46.2418 22.7143 45.4399 22.9885 44.7241L35.3739 12.4618C35.6481 11.7459 36.4513 11.3908 37.1631 11.6655C37.8776 11.9401 38.2321 12.742 37.9579 13.4578L25.5725 45.7202C25.362 46.2723 24.8358 46.6108 24.2791 46.6108V46.608Z" fill="var(--fill-0, #B2D6C9)"/>
<path id="Vector_3" d="M16.7737 43.7142C16.6075 43.7142 16.4413 43.6837 16.2779 43.6226C15.5634 43.3479 15.2089 42.5461 15.4831 41.8303L27.8685 9.56791C28.1427 8.85208 28.9458 8.49694 29.6576 8.77162C30.3721 9.0463 30.7266 9.84814 30.4525 10.564L18.067 42.8263C17.8566 43.3785 17.3303 43.717 16.7737 43.717V43.7142Z" fill="var(--fill-0, #B2D6C9)"/>
<path id="Vector_4" d="M9.26542 40.8203C9.09925 40.8203 8.93308 40.7898 8.76968 40.7288C8.05514 40.4541 7.70064 39.6523 7.97482 38.9364L20.3602 6.67406C20.6344 5.95823 21.4376 5.60309 22.1493 5.87777C22.8639 6.15245 23.2184 6.9543 22.9442 7.67013L10.5588 39.9325C10.3483 40.4846 9.8221 40.8231 9.26542 40.8231V40.8203Z" fill="var(--fill-0, #B2D6C9)"/>
<path id="Vector_5" d="M1.75719 37.9293C1.59101 37.9293 1.42484 37.8987 1.26143 37.8377C0.546892 37.563 0.192391 36.7612 0.466576 36.0454L12.852 3.78299C13.1262 3.06716 13.9266 2.71202 14.6411 2.9867C15.3557 3.26138 15.7102 4.06322 15.436 4.77905L3.05057 37.0414C2.84008 37.5935 2.31386 37.932 1.75719 37.932V37.9293Z" fill="var(--fill-0, #B2D6C9)"/>
<path id="Vector_6" d="M1.38329 16.4515C1.21712 16.4515 1.05095 16.421 0.887543 16.36C0.173 16.0853 -0.1815 15.2835 0.0926847 14.5676L5.34375 0.889147C5.61793 0.173316 6.41833 -0.181828 7.13287 0.0928513C7.84742 0.367531 8.20192 1.16938 7.92773 1.88521L2.67668 15.5637C2.46619 16.1158 1.93997 16.4543 1.38329 16.4543V16.4515Z" fill="var(--fill-0, #B2D6C9)"/>
</g>
</svg>
