<svg preserveAspectRatio="none" width="100%" height="100%" overflow="visible" style="display: block;" viewBox="0 0 77.5598 90.6327" fill="none" xmlns="http://www.w3.org/2000/svg">
<g id="Group">
<path id="Vector" d="M21.9965 89.1895L75.1455 74.9923C75.8845 74.7949 76.3238 74.0348 76.1268 73.2945L57.26 2.40944C57.063 1.66913 56.3042 1.22901 55.5652 1.42641L2.41617 15.6236C1.6772 15.821 1.23788 16.5812 1.43492 17.3215L20.3017 88.2065C20.4987 88.9468 21.2575 89.3869 21.9965 89.1895Z" fill="var(--fill-0, #FDFCFB)"/>
<path id="Vector_2" d="M21.6419 90.6299C20.4178 90.6299 19.2961 89.8087 18.9638 88.5712L0.0948829 17.6872C-0.0962158 16.9714 0.00349057 16.2223 0.37461 15.5814C0.745729 14.9405 1.34395 14.4827 2.05849 14.2912L55.2061 0.0938838C56.6822 -0.300101 58.2027 0.582202 58.596 2.06103L77.4649 72.945C77.656 73.6608 77.5563 74.41 77.1852 75.0509C76.8141 75.6918 76.2159 76.1496 75.5013 76.341L22.3537 90.5384C22.1155 90.6022 21.8774 90.6327 21.6419 90.6327V90.6299ZM55.9206 2.77132L2.77027 16.9714L21.6392 87.8554L74.7868 73.6581L55.9179 2.77409L55.9206 2.77132Z" fill="var(--fill-0, #DFECE0)"/>
</g>
</svg>
