<svg preserveAspectRatio="none" width="100%" height="100%" overflow="visible" style="display: block;" viewBox="0 0 44.3985 47.4002" fill="none" xmlns="http://www.w3.org/2000/svg">
<g id="Group">
<path id="Vector" d="M21.6994 47.4002C21.0873 47.4002 20.5278 46.9896 20.3617 46.3709C20.165 45.6301 20.6026 44.8698 21.3421 44.6728L42.6565 38.9795C43.3932 38.7797 44.1548 39.2209 44.3515 39.9617C44.5481 40.7025 44.1105 41.4627 43.3711 41.6597L22.0566 47.353C21.9375 47.3863 21.8184 47.4002 21.6994 47.4002Z" fill="var(--fill-0, #B2D6C9)"/>
<path id="Vector_2" d="M7.60238 42.8278C6.99031 42.8278 6.43085 42.4171 6.26468 41.7984C6.06804 41.0576 6.50563 40.2974 7.24509 40.1004L40.5849 31.1941C41.3244 30.9944 42.0832 31.4355 42.2798 32.1763C42.4765 32.9171 42.0389 33.6773 41.2994 33.8743L7.95964 42.7806C7.84055 42.8139 7.7187 42.8278 7.60238 42.8278Z" fill="var(--fill-0, #B2D6C9)"/>
<path id="Vector_3" d="M5.52799 35.0396C4.91592 35.0396 4.35647 34.629 4.19029 34.0103C3.99366 33.2695 4.43124 32.5092 5.17071 32.3123L38.5105 23.406C39.2472 23.209 40.0088 23.6474 40.2055 24.3882C40.4021 25.129 39.9645 25.8892 39.2251 26.0862L5.88525 34.9925C5.76616 35.0258 5.64431 35.0396 5.52799 35.0396Z" fill="var(--fill-0, #B2D6C9)"/>
<path id="Vector_4" d="M3.45636 27.2543C2.84429 27.2543 2.28483 26.8436 2.11866 26.2249C1.92202 25.4841 2.35962 24.7239 3.09909 24.5269L36.4389 15.6206C37.1784 15.4236 37.9372 15.862 38.1338 16.6028C38.3305 17.3436 37.8929 18.1038 37.1534 18.3008L3.81364 27.2071C3.69455 27.2404 3.57268 27.2543 3.45636 27.2543Z" fill="var(--fill-0, #B2D6C9)"/>
<path id="Vector_5" d="M1.38474 19.4689C0.772672 19.4689 0.213219 19.0583 0.0470463 18.4396C-0.149591 17.6988 0.287999 16.9385 1.02747 16.7415L34.3673 7.83526C35.1067 7.63827 35.8656 8.07665 36.0622 8.81745C36.2589 9.55825 35.8213 10.3185 35.0818 10.5155L1.74201 19.4217C1.62292 19.455 1.50106 19.4689 1.38474 19.4689Z" fill="var(--fill-0, #B2D6C9)"/>
<path id="Vector_6" d="M18.5144 6.55065C17.9023 6.55065 17.3429 6.14002 17.1767 5.52129C16.9801 4.78049 17.4176 4.02027 18.1571 3.82328L32.2929 0.0471303C33.0296 -0.149862 33.7912 0.288509 33.9878 1.02931C34.1845 1.77011 33.7469 2.53034 33.0074 2.72733L18.8717 6.50348C18.7526 6.53678 18.6335 6.55065 18.5144 6.55065Z" fill="var(--fill-0, #B2D6C9)"/>
</g>
</svg>
