<svg preserveAspectRatio="none" width="100%" height="100%" overflow="visible" style="display: block;" viewBox="0 0 90.9953 96.9644" fill="none" xmlns="http://www.w3.org/2000/svg">
<g id="Group">
<path id="Vector" d="M2.05 66.1528L48.6926 95.3622C49.3411 95.7683 50.1955 95.5709 50.6009 94.9212L89.4175 32.7138C89.8228 32.0641 89.6258 31.2082 88.9773 30.8021L42.3346 1.59267C41.6861 1.18655 40.8318 1.38399 40.4264 2.03366L1.6098 64.2411C1.20441 64.8907 1.4015 65.7466 2.05 66.1528Z" fill="var(--fill-0, #FDFCFB)"/>
<path id="Vector_2" d="M49.4085 96.9644C48.8961 96.9644 48.3921 96.8202 47.9462 96.5427L1.30149 67.3379C0.675572 66.9439 0.237983 66.3307 0.0718104 65.6094C-0.0943624 64.888 0.0302614 64.1444 0.420767 63.5146L39.2332 1.30383C39.6265 0.676782 40.2385 0.238412 40.9586 0.0719399C41.6787 -0.0945326 42.4209 0.030316 43.0496 0.421526L89.6943 29.6263C90.9905 30.4365 91.3837 32.1512 90.575 33.4497L51.7626 95.6604C51.3694 96.2875 50.7573 96.7258 50.0372 96.8923C49.8295 96.9395 49.619 96.9644 49.4085 96.9644ZM41.579 2.77156L2.76935 64.9823L49.414 94.1871L88.2265 31.9764L41.579 2.76879V2.77156Z" fill="var(--fill-0, #DFECE0)"/>
</g>
</svg>
