<svg preserveAspectRatio="none" width="100%" height="100%" overflow="visible" style="display: block;" viewBox="0 0 49.084 48.4265" fill="none" xmlns="http://www.w3.org/2000/svg">
<g id="Group">
<path id="Vector" d="M26.3823 48.4265C26.1331 48.4265 25.8783 48.3571 25.6484 48.2156L6.94289 36.5043C6.29482 36.0992 6.09818 35.2418 6.50254 34.5926C6.90689 33.9434 7.76268 33.7464 8.41076 34.1515L27.1163 45.8628C27.7643 46.2679 27.961 47.1252 27.5566 47.7744C27.2935 48.1962 26.8421 48.4265 26.3796 48.4265H26.3823Z" fill="var(--fill-0, #B2D6C9)"/>
<path id="Vector_2" d="M30.6447 41.5955C30.3954 41.5955 30.1406 41.5262 29.9107 41.3847L0.650483 23.0644C0.0024094 22.6593 -0.194227 21.802 0.210126 21.1527C0.61448 20.5035 1.47027 20.3065 2.11835 20.7116L31.3786 39.0319C32.0267 39.437 32.2233 40.2943 31.819 40.9435C31.5559 41.3653 31.1044 41.5955 30.6447 41.5955Z" fill="var(--fill-0, #B2D6C9)"/>
<path id="Vector_3" d="M34.9098 34.7619C34.6605 34.7619 34.4057 34.6925 34.1758 34.551L4.91559 16.2307C4.26752 15.8256 4.07088 14.9683 4.47523 14.319C4.87959 13.6698 5.73537 13.4728 6.38345 13.8779L35.6437 32.1982C36.2918 32.6033 36.4884 33.4606 36.0841 34.1098C35.821 34.5316 35.3695 34.7619 34.907 34.7619H34.9098Z" fill="var(--fill-0, #B2D6C9)"/>
<path id="Vector_4" d="M39.1721 27.9282C38.9228 27.9282 38.668 27.8588 38.4382 27.7173L9.17792 9.397C8.52984 8.99192 8.33321 8.13459 8.73756 7.48535C9.14191 6.83611 9.99771 6.63912 10.6458 7.0442L39.906 25.3645C40.5541 25.7696 40.7507 26.6269 40.3464 27.2761C40.0833 27.6979 39.6318 27.9282 39.1721 27.9282Z" fill="var(--fill-0, #B2D6C9)"/>
<path id="Vector_5" d="M43.4344 21.0945C43.1852 21.0945 42.9304 21.0251 42.7005 20.8836L13.4403 2.56331C12.7922 2.15823 12.5955 1.3009 12.9999 0.651656C13.4042 0.00241319 14.26 -0.194578 14.9081 0.210505L44.1684 18.5308C44.8164 18.9359 45.0131 19.7932 44.6087 20.4425C44.3456 20.8642 43.8942 21.0945 43.4317 21.0945H43.4344Z" fill="var(--fill-0, #B2D6C9)"/>
<path id="Vector_6" d="M47.6995 14.2608C47.4503 14.2608 47.1955 14.1914 46.9656 14.0499L34.5608 6.2812C33.9127 5.87612 33.7161 5.01878 34.1205 4.36954C34.5248 3.7203 35.3806 3.5233 36.0287 3.92839L48.4335 11.6971C49.0815 12.1022 49.2782 12.9595 48.8738 13.6088C48.6107 14.0305 48.1593 14.2608 47.6968 14.2608H47.6995Z" fill="var(--fill-0, #B2D6C9)"/>
</g>
</svg>
