<svg preserveAspectRatio="none" width="100%" height="100%" overflow="visible" style="display: block;" viewBox="0 0 93.584 83.2234" fill="none" xmlns="http://www.w3.org/2000/svg">
<g id="Group">
<path id="Vector" d="M21.1145 2.27269L1.4739 53.7453C1.20082 54.461 1.55856 55.2629 2.27293 55.5365L70.6752 81.7313C71.3896 82.0049 72.1901 81.6465 72.4631 80.9308L92.1038 29.4582C92.3769 28.7425 92.0191 27.9406 91.3048 27.667L22.9025 1.47222C22.1881 1.19864 21.3876 1.55703 21.1145 2.27269Z" fill="var(--fill-0, #FDFCFB)"/>
<path id="Vector_2" d="M71.1728 83.2234C70.8377 83.2234 70.5026 83.1623 70.1813 83.0375L1.78182 56.8375C1.08943 56.5739 0.54383 56.055 0.241949 55.3781C-0.0599311 54.7011 -0.0793198 53.9464 0.183787 53.2555L19.8282 1.78503C20.0913 1.09417 20.6092 0.544813 21.285 0.242388C21.9607 -0.0600369 22.714 -0.0794648 23.4037 0.184117L91.8031 26.3841C93.2295 26.9307 93.9468 28.5371 93.4012 29.966L73.7568 81.4366C73.4937 82.1302 72.9758 82.6768 72.3 82.9792C71.94 83.1401 71.555 83.2234 71.17 83.2234H71.1728ZM22.4177 2.77831L2.77331 54.2488L71.1728 80.4488L90.8172 28.9755L22.4177 2.77831Z" fill="var(--fill-0, #DFECE0)"/>
</g>
</svg>
