<svg preserveAspectRatio="none" width="100%" height="100%" overflow="visible" style="display: block;" viewBox="0 0 49.9197 50.009" fill="none" xmlns="http://www.w3.org/2000/svg">
<g id="Group">
<path id="Vector" d="M20.0965 50.009C19.742 50.009 19.3875 49.8731 19.1161 49.6039L3.51802 33.9777C2.97796 33.4367 2.97796 32.5571 3.51802 32.0161C4.05808 31.4751 4.93602 31.4751 5.47608 32.0161L21.0742 47.6423C21.6142 48.1834 21.6142 49.0629 21.0742 49.6039C20.8028 49.8758 20.4483 50.009 20.0938 50.009H20.0965Z" fill="var(--fill-0, #B2D6C9)"/>
<path id="Vector_2" d="M25.7852 44.3101C25.4307 44.3101 25.0762 44.1742 24.8047 43.905L0.405046 19.4613C-0.135015 18.9203 -0.135015 18.0408 0.405046 17.4997C0.945108 16.9587 1.82306 16.9587 2.36312 17.4997L26.7628 41.9434C27.3029 42.4845 27.3029 43.364 26.7628 43.905C26.4914 44.1769 26.1369 44.3101 25.7824 44.3101H25.7852Z" fill="var(--fill-0, #B2D6C9)"/>
<path id="Vector_3" d="M31.4738 38.6112C31.1193 38.6112 30.7648 38.4752 30.4934 38.2061L6.0937 13.7624C5.55363 13.2214 5.55363 12.3419 6.0937 11.8008C6.63376 11.2598 7.51171 11.2598 8.05177 11.8008L32.4515 36.2445C32.9915 36.7855 32.9915 37.6651 32.4515 38.2061C32.1801 38.478 31.8255 38.6112 31.471 38.6112H31.4738Z" fill="var(--fill-0, #B2D6C9)"/>
<path id="Vector_4" d="M37.1597 32.9151C36.8052 32.9151 36.4507 32.7791 36.1793 32.51L11.7796 8.06629C11.2395 7.52525 11.2395 6.64572 11.7796 6.10469C12.3196 5.56365 13.1976 5.56365 13.7376 6.10469L38.1373 30.5484C38.6774 31.0894 38.6774 31.969 38.1373 32.51C37.8659 32.7819 37.5114 32.9151 37.1569 32.9151H37.1597Z" fill="var(--fill-0, #B2D6C9)"/>
<path id="Vector_5" d="M42.8483 27.2162C42.4938 27.2162 42.1393 27.0802 41.8679 26.8111L17.4682 2.36738C16.9282 1.82634 16.9282 0.946812 17.4682 0.405777C18.0083 -0.135258 18.8862 -0.135258 19.4263 0.405777L43.826 24.8495C44.3661 25.3905 44.3661 26.27 43.826 26.8111C43.5546 27.083 43.2001 27.2162 42.8456 27.2162H42.8483Z" fill="var(--fill-0, #B2D6C9)"/>
<path id="Vector_6" d="M48.537 21.5173C48.1825 21.5173 47.828 21.3813 47.5566 21.1122L37.2123 10.7493C36.6722 10.2082 36.6722 9.3287 37.2123 8.78766C37.7524 8.24663 38.6303 8.24663 39.1704 8.78766L49.5146 19.1506C50.0547 19.6916 50.0547 20.5711 49.5146 21.1122C49.2432 21.3841 48.8887 21.5173 48.5342 21.5173H48.537Z" fill="var(--fill-0, #B2D6C9)"/>
</g>
</svg>
