<svg preserveAspectRatio="none" width="100%" height="100%" overflow="visible" style="display: block;" viewBox="0 0 45.5636 46.5771" fill="none" xmlns="http://www.w3.org/2000/svg">
<g id="Group">
<path id="Vector" d="M1.38292 32.1828C1.21951 32.1828 1.05057 32.1523 0.889939 32.0913C0.175396 31.8166 -0.181868 31.0147 0.0923167 30.2989L7.97167 9.65632C8.24586 8.94049 9.04625 8.58258 9.7608 8.85726C10.4753 9.13193 10.8326 9.93377 10.5584 10.6496L2.67907 31.2922C2.46859 31.8443 1.94237 32.1828 1.38569 32.1828H1.38292Z" fill="var(--fill-0, #B2D6C9)"/>
<path id="Vector_2" d="M8.8967 35.0628C8.73329 35.0628 8.56435 35.0323 8.40372 34.9712C7.68917 34.6966 7.3319 33.8947 7.60609 33.1789L19.9278 0.891551C20.202 0.17572 21.0024 -0.182197 21.7169 0.092482C22.4315 0.367162 22.7887 1.169 22.5146 1.88483L10.1929 34.1722C9.98236 34.7243 9.45615 35.0628 8.89947 35.0628H8.8967Z" fill="var(--fill-0, #B2D6C9)"/>
<path id="Vector_3" d="M16.4105 37.94C16.2471 37.94 16.0781 37.9095 15.9175 37.8484C15.203 37.5737 14.8457 36.7719 15.1199 36.0561L27.4416 3.76875C27.7158 3.05292 28.5162 2.695 29.2307 2.96968C29.9452 3.24436 30.3025 4.0462 30.0283 4.76203L17.7066 37.0494C17.4961 37.6015 16.9699 37.94 16.4132 37.94H16.4105Z" fill="var(--fill-0, #B2D6C9)"/>
<path id="Vector_4" d="M23.9243 40.8172C23.7609 40.8172 23.5919 40.7867 23.4313 40.7256C22.7167 40.451 22.3595 39.6491 22.6336 38.9333L34.9554 6.64595C35.2295 5.93011 36.0299 5.5722 36.7445 5.84688C37.459 6.12156 37.8163 6.9234 37.5421 7.63924L25.2204 39.9266C25.0099 40.4787 24.4837 40.8172 23.927 40.8172H23.9243Z" fill="var(--fill-0, #B2D6C9)"/>
<path id="Vector_5" d="M31.438 43.6972C31.2746 43.6972 31.1057 43.6666 30.9451 43.6056C30.2305 43.3309 29.8732 42.5291 30.1474 41.8132L42.4691 9.52592C42.7433 8.81009 43.5437 8.45217 44.2583 8.72685C44.9728 9.00153 45.3301 9.80337 45.0559 10.5192L32.7342 42.8065C32.5237 43.3587 31.9975 43.6972 31.4408 43.6972H31.438Z" fill="var(--fill-0, #B2D6C9)"/>
<path id="Vector_6" d="M38.9518 46.5744C38.7884 46.5744 38.6195 46.5438 38.4588 46.4828C37.7443 46.2081 37.387 45.4063 37.6612 44.6905L42.8846 31.0009C43.1587 30.285 43.9592 29.9271 44.6737 30.2018C45.3882 30.4765 45.7455 31.2783 45.4713 31.9942L40.248 45.6837C40.0375 46.2359 39.5113 46.5771 38.9546 46.5771L38.9518 46.5744Z" fill="var(--fill-0, #B2D6C9)"/>
</g>
</svg>
