<svg preserveAspectRatio="none" width="100%" height="100%" overflow="visible" style="display: block;" viewBox="0 0 91.0756 96.9835" fill="none" xmlns="http://www.w3.org/2000/svg">
<g id="Group">
<path id="Vector" d="M48.5998 1.6015L2.02857 30.925C1.38106 31.3327 1.18606 32.1891 1.59303 32.8378L40.5612 94.95C40.9682 95.5987 41.823 95.794 42.4706 95.3863L89.0418 66.0628C89.6893 65.6551 89.8843 64.7987 89.4773 64.15L50.5091 2.03782C50.1021 1.38914 49.2473 1.19379 48.5998 1.6015Z" fill="var(--fill-0, #FDFCFB)"/>
<path id="Vector_2" d="M41.7449 96.9807C40.8227 96.9807 39.9226 96.5202 39.3963 95.6822L0.423299 33.5741C-0.388178 32.2784 0.00232839 30.5638 1.29294 29.7481L47.8629 0.423941C49.1562 -0.388999 50.8678 0.00220916 51.6821 1.29792L90.6523 63.4088C91.4638 64.7045 91.0733 66.4192 89.7827 67.2349L43.2128 96.559C42.7558 96.8475 42.2462 96.9835 41.7422 96.9835L41.7449 96.9807ZM49.339 2.7712L2.76911 32.0953L41.7394 94.2062L88.3093 64.8793L49.3363 2.7712H49.339Z" fill="var(--fill-0, #DFECE0)"/>
</g>
</svg>
