<svg preserveAspectRatio="none" width="100%" height="100%" overflow="visible" style="display: block;" viewBox="0 0 49.1062 48.6478" fill="none" xmlns="http://www.w3.org/2000/svg">
<g id="Group">
<path id="Vector" d="M1.38722 14.5348C0.927476 14.5348 0.476043 14.3045 0.212936 13.8856C-0.194188 13.2363 -0.000321506 12.3818 0.647752 11.9739L19.3228 0.212647C19.9709 -0.195211 20.8239 0.00177971 21.231 0.648248C21.6381 1.29749 21.4443 2.15205 20.7962 2.55991L2.12115 14.3212C1.89128 14.4655 1.63648 14.5348 1.38445 14.5348H1.38722Z" fill="var(--fill-0, #B2D6C9)"/>
<path id="Vector_2" d="M5.66894 21.3574C5.20919 21.3574 4.75776 21.1271 4.49465 20.7082C4.08753 20.0589 4.2814 19.2044 4.92947 18.7965L34.1426 0.401312C34.7907 -0.00654595 35.6437 0.190449 36.0509 0.836916C36.458 1.48616 36.2641 2.34072 35.616 2.74857L6.40287 21.1438C6.17299 21.2881 5.9182 21.3574 5.66617 21.3574H5.66894Z" fill="var(--fill-0, #B2D6C9)"/>
<path id="Vector_3" d="M9.95066 28.18C9.49091 28.18 9.03948 27.9497 8.77637 27.5308C8.36925 26.8815 8.56311 26.027 9.21119 25.6191L38.4244 7.22391C39.0724 6.81605 39.9255 7.01305 40.3326 7.65951C40.7397 8.30876 40.5458 9.16331 39.8978 9.57117L10.6846 27.9664C10.4547 28.1106 10.1999 28.18 9.94789 28.18H9.95066Z" fill="var(--fill-0, #B2D6C9)"/>
<path id="Vector_4" d="M14.2296 35.0026C13.7699 35.0026 13.3184 34.7723 13.0553 34.3534C12.6482 33.7041 12.8421 32.8496 13.4901 32.4417L42.7033 14.0465C43.3514 13.6386 44.2044 13.8356 44.6115 14.4821C45.0186 15.1314 44.8248 15.9859 44.1767 16.3938L14.9635 34.789C14.7337 34.9332 14.4789 35.0026 14.2268 35.0026H14.2296Z" fill="var(--fill-0, #B2D6C9)"/>
<path id="Vector_5" d="M18.5113 41.8252C18.0516 41.8252 17.6001 41.5949 17.337 41.176C16.9299 40.5267 17.1238 39.6722 17.7719 39.2643L46.985 20.8691C47.6331 20.4612 48.4861 20.6582 48.8932 21.3047C49.3004 21.9539 49.1065 22.8085 48.4584 23.2164L19.2453 41.6116C19.0154 41.7558 18.7606 41.8252 18.5086 41.8252H18.5113Z" fill="var(--fill-0, #B2D6C9)"/>
<path id="Vector_6" d="M22.7903 48.6478C22.3305 48.6478 21.8791 48.4175 21.616 47.9986C21.2089 47.3493 21.4027 46.4948 22.0508 46.0869L34.4362 38.2877C35.0843 37.8798 35.9373 38.0768 36.3444 38.7233C36.7516 39.3725 36.5577 40.2271 35.9096 40.6349L23.5242 48.4342C23.2943 48.5784 23.0395 48.6478 22.7875 48.6478H22.7903Z" fill="var(--fill-0, #B2D6C9)"/>
</g>
</svg>
