<svg preserveAspectRatio="none" width="100%" height="100%" overflow="visible" style="display: block;" viewBox="0 0 92.4064 81.024" fill="none" xmlns="http://www.w3.org/2000/svg">
<g id="Group">
<path id="Vector" d="M90.9427 54.6126L73.5528 2.33374C73.311 1.60687 72.5268 1.21398 71.8012 1.4562L2.32755 24.6492C1.60198 24.8914 1.20981 25.677 1.45159 26.4039L18.8415 78.6827C19.0833 79.4096 19.8675 79.8025 20.593 79.5603L90.0667 56.3673C90.7923 56.1251 91.1844 55.3395 90.9427 54.6126Z" fill="var(--fill-0, #FDFCFB)"/>
<path id="Vector_2" d="M20.1694 81.024C19.009 81.024 17.9261 80.2888 17.5384 79.1262L0.142863 26.8483C-0.0897788 26.1464 -0.0371551 25.3917 0.292421 24.7314C0.621997 24.0683 1.19252 23.5744 1.89322 23.3413L71.3645 0.143389C72.813 -0.342156 74.3833 0.445811 74.868 1.8969L92.2635 54.1748C92.4961 54.8768 92.4435 55.6314 92.1139 56.2918C91.7844 56.9549 91.2138 57.4488 90.5131 57.6818L21.0419 80.8798C20.7538 80.9769 20.4575 81.0212 20.1694 81.0212V81.024ZM20.1694 78.2495L89.6407 55.0516L72.2452 2.77365L2.77393 25.9716L20.1694 78.2495Z" fill="var(--fill-0, #DFECE0)"/>
</g>
</svg>
