<svg preserveAspectRatio="none" width="100%" height="100%" overflow="visible" style="display: block;" viewBox="0 0 47.8976 45.7597" fill="none" xmlns="http://www.w3.org/2000/svg">
<g id="Group">
<path id="Vector" d="M46.5137 23.7381C45.9348 23.7381 45.3948 23.3719 45.2009 22.7892L38.2244 1.8248C37.9835 1.09787 38.374 0.31268 39.0996 0.071295C39.8252 -0.17009 40.609 0.221117 40.85 0.948047L47.8264 21.9125C48.0674 22.6394 47.6769 23.4246 46.9513 23.666C46.8073 23.7132 46.6577 23.7381 46.5137 23.7381Z" fill="var(--fill-0, #B2D6C9)"/>
<path id="Vector_2" d="M42.8191 38.1158C42.2403 38.1158 41.7002 37.7496 41.5063 37.1669L30.5943 4.37461C30.3534 3.64768 30.7439 2.86248 31.4695 2.62109C32.1951 2.37971 32.9789 2.77092 33.2199 3.49785L44.1319 36.2902C44.3728 37.0171 43.9823 37.8023 43.2567 38.0437C43.1127 38.0908 42.9631 38.1158 42.8191 38.1158Z" fill="var(--fill-0, #B2D6C9)"/>
<path id="Vector_3" d="M35.189 40.6628C34.6102 40.6628 34.0701 40.2966 33.8762 39.7139L22.9642 6.92163C22.7233 6.1947 23.1138 5.40951 23.8394 5.16812C24.565 4.92674 25.3488 5.31795 25.5898 6.04488L36.5018 38.8372C36.7427 39.5641 36.3522 40.3493 35.6266 40.5907C35.4826 40.6379 35.333 40.6628 35.189 40.6628Z" fill="var(--fill-0, #B2D6C9)"/>
<path id="Vector_4" d="M27.5561 43.2099C26.9773 43.2099 26.4372 42.8436 26.2434 42.261L15.3314 9.46866C15.0904 8.74173 15.4809 7.95654 16.2065 7.71515C16.9322 7.47377 17.7159 7.86498 17.9569 8.59191L28.8689 41.3842C29.1099 42.1111 28.7194 42.8963 27.9937 43.1377C27.8497 43.1849 27.7002 43.2099 27.5561 43.2099Z" fill="var(--fill-0, #B2D6C9)"/>
<path id="Vector_5" d="M19.926 45.7597C19.3472 45.7597 18.8071 45.3934 18.6133 44.8108L7.70126 12.0185C7.46031 11.2915 7.85082 10.5063 8.57644 10.265C9.30206 10.0208 10.0858 10.4148 10.3268 11.1417L21.2388 43.934C21.4798 44.6609 21.0892 45.4461 20.3636 45.6875C20.2196 45.7347 20.0701 45.7597 19.926 45.7597Z" fill="var(--fill-0, #B2D6C9)"/>
<path id="Vector_6" d="M6.00907 29.4176C5.43024 29.4176 4.89018 29.0514 4.69631 28.4687L0.0711662 14.5655C-0.169784 13.8386 0.220723 13.0534 0.946344 12.812C1.67196 12.5706 2.45574 12.9618 2.69669 13.6887L7.32184 27.592C7.56279 28.3189 7.17228 29.1041 6.44666 29.3455C6.30264 29.3926 6.15309 29.4176 6.00907 29.4176Z" fill="var(--fill-0, #B2D6C9)"/>
</g>
</svg>
