<svg preserveAspectRatio="none" width="100%" height="100%" overflow="visible" style="display: block;" viewBox="0 0 158.302 158.593" fill="none" xmlns="http://www.w3.org/2000/svg">
<g id="Group">
<path id="Vector" d="M155.651 143.225L117.504 104.983C121.215 100.069 124.186 94.6701 126.363 88.8852C129.102 81.602 130.493 73.9193 130.493 66.059C130.493 57.3276 128.787 48.8597 125.419 40.8829C122.167 33.1807 117.515 26.2666 111.588 20.3291C105.661 14.3915 98.7592 9.73031 91.071 6.473C83.1085 3.09916 74.6531 1.39005 65.9401 1.39005C57.2271 1.39005 48.7717 3.09916 40.8093 6.473C33.121 9.73031 26.2193 14.3915 20.2925 20.3291C14.3656 26.2666 9.71279 33.1807 6.46135 40.8829C3.09358 48.8597 1.38754 57.3303 1.38754 66.059C1.38754 74.7877 3.09358 83.2584 6.46135 91.2352C9.71279 98.9374 14.3656 105.851 20.2925 111.789C26.2193 117.727 33.121 122.388 40.8093 125.645C48.7717 129.019 57.2271 130.728 65.9401 130.728C73.789 130.728 81.4551 129.335 88.7252 126.591C94.4997 124.41 99.8892 121.433 104.794 117.715L142.967 155.932C143.814 156.781 144.925 157.205 146.035 157.205C147.146 157.205 148.257 156.781 149.107 155.932L155.648 149.379C157.343 147.68 157.343 144.925 155.648 143.227L155.651 143.225ZM112.543 66.0563C112.543 78.5278 107.697 90.253 98.8922 99.0705C90.0906 107.888 78.3865 112.746 65.9373 112.746C53.4882 112.746 41.7841 107.891 32.9825 99.0705C24.1809 90.253 19.3314 78.5278 19.3314 66.0563C19.3314 53.5847 24.1781 41.8595 32.9825 33.042C41.7841 24.2245 53.4882 19.3663 65.9373 19.3663C78.3865 19.3663 90.0906 24.2217 98.8922 33.042C107.694 41.8595 112.543 53.5847 112.543 66.0563Z" fill="var(--fill-0, #EE6C4D)"/>
<path id="Vector_2" d="M146.035 158.59C144.507 158.59 143.069 157.993 141.986 156.911L104.658 119.541C99.9114 123.004 94.7212 125.809 89.2126 127.887C81.7847 130.692 73.9552 132.113 65.9373 132.113C57.036 132.113 48.4006 130.365 40.2664 126.921C32.4148 123.595 25.3635 118.834 19.3093 112.768C13.255 106.703 8.5025 99.6393 5.18182 91.7735C1.74204 83.6247 0 74.9736 0 66.0563C0 57.1389 1.74481 48.4879 5.18182 40.3391C8.5025 32.4705 13.255 25.4092 19.3093 19.3441C25.3635 13.279 32.4148 8.51784 40.2664 5.19117C48.4006 1.74519 57.036 0 65.9373 0C74.8387 0 83.4741 1.74796 91.6083 5.19117C99.4599 8.51784 106.511 13.279 112.565 19.3441C118.62 25.4092 123.372 32.4732 126.693 40.3391C130.133 48.4879 131.875 57.1389 131.875 66.0563C131.875 74.0858 130.457 81.9294 127.657 89.3735C125.582 94.8921 122.78 100.092 119.326 104.85L156.629 142.245C158.861 144.481 158.858 148.122 156.629 150.358L150.087 156.911C149.004 157.996 147.567 158.593 146.038 158.593L146.035 158.59ZM104.794 116.325C105.151 116.325 105.506 116.461 105.775 116.73L143.947 154.947C144.507 155.507 145.249 155.815 146.038 155.815C146.827 155.815 147.57 155.507 148.129 154.947L154.671 148.394C155.823 147.239 155.823 145.358 154.671 144.204L116.523 105.962C116.036 105.474 115.98 104.697 116.398 104.145C120.027 99.3424 122.943 94.0431 125.067 88.3941C127.748 81.2663 129.108 73.7501 129.108 66.0563C129.108 57.5135 127.438 49.2231 124.145 41.4211C120.963 33.8855 116.41 27.1184 110.61 21.3057C104.811 15.4958 98.0558 10.9345 90.5309 7.74652C82.7402 4.44759 74.4675 2.77454 65.9401 2.77454C57.4127 2.77454 49.1373 4.44759 41.3493 7.74652C33.8272 10.9345 27.0723 15.4958 21.2729 21.3057C15.4735 27.1156 10.9203 33.8827 7.73811 41.4211C4.44512 49.2259 2.77508 57.5135 2.77508 66.0563C2.77508 74.5991 4.44512 82.8894 7.73811 90.6914C10.9203 98.2271 15.4735 104.994 21.2729 110.807C27.0723 116.617 33.8272 121.178 41.3493 124.366C49.14 127.665 57.4127 129.338 65.9401 129.338C73.6201 129.338 81.1228 127.976 88.2377 125.29C93.8738 123.162 99.1636 120.24 103.96 116.606C104.21 116.417 104.503 116.325 104.797 116.325H104.794ZM65.9373 114.134C53.1199 114.134 41.0668 109.134 32.0021 100.053C22.9374 90.9716 17.9467 78.8996 17.9467 66.0563C17.9467 53.2129 22.9374 41.1409 32.0021 32.0598C41.0668 22.9787 53.1171 17.979 65.9373 17.979C78.7576 17.979 90.8079 22.9787 99.8726 32.0598C108.937 41.1409 113.928 53.2129 113.928 66.0563C113.928 78.8996 108.937 90.9716 99.8726 100.053C90.8079 109.134 78.7576 114.134 65.9373 114.134ZM65.9373 20.7536C53.8594 20.7536 42.5015 25.4647 33.9602 34.0214C25.4189 42.5781 20.7162 53.9537 20.7162 66.0563C20.7162 78.1588 25.4189 89.5344 33.9602 98.0911C42.5015 106.648 53.8566 111.359 65.9373 111.359C78.0181 111.359 89.3732 106.648 97.9118 98.0911C106.453 89.5344 111.156 78.1588 111.156 66.0563C111.156 53.9537 106.453 42.5781 97.9118 34.0214C89.3705 25.4647 78.0153 20.7536 65.9373 20.7536Z" fill="var(--fill-0, #BF4E30)"/>
</g>
</svg>
