<svg preserveAspectRatio="none" width="100%" height="100%" overflow="visible" style="display: block;" viewBox="0 0 55.571 72.3545" fill="none" xmlns="http://www.w3.org/2000/svg">
<g id="Group">
<path id="Vector" d="M52.8014 1.38727H2.76955C2.00476 1.38727 1.38478 2.00837 1.38478 2.77454V69.5799C1.38478 70.3461 2.00476 70.9672 2.76955 70.9672H52.8014C53.5662 70.9672 54.1862 70.3461 54.1862 69.5799V2.77454C54.1862 2.00837 53.5662 1.38727 52.8014 1.38727Z" fill="var(--fill-0, #FDFCFB)"/>
<path id="Vector_2" d="M52.8014 72.3545H2.76955C1.24353 72.3545 0 71.1087 0 69.5799V2.77454C0 1.24577 1.24353 0 2.76955 0H52.8014C54.3274 0 55.571 1.24577 55.571 2.77454V69.5799C55.571 71.1087 54.3274 72.3545 52.8014 72.3545ZM2.76955 2.77454V69.5799H52.8014V2.77454H2.76955Z" fill="var(--fill-0, #DFECE0)"/>
</g>
</svg>
