<svg preserveAspectRatio="none" width="100%" height="100%" overflow="visible" style="display: block;" viewBox="0 0 34.3036 39.5982" fill="none" xmlns="http://www.w3.org/2000/svg">
<g id="Group">
<path id="Vector" d="M21.5443 2.77454H1.38477C0.620378 2.77454 0 2.15304 0 1.38727C0 0.621497 0.620378 0 1.38477 0H21.5443C22.3087 0 22.9291 0.621497 22.9291 1.38727C22.9291 2.15304 22.3087 2.77454 21.5443 2.77454Z" fill="var(--fill-0, #2D9385)"/>
<path id="Vector_2" d="M32.9188 10.141H1.38477C0.620378 10.141 2.04177e-07 9.51945 2.04177e-07 8.75368C2.04177e-07 7.98791 0.620378 7.36641 1.38477 7.36641H32.9188C33.6832 7.36641 34.3036 7.98791 34.3036 8.75368C34.3036 9.51945 33.6832 10.141 32.9188 10.141Z" fill="var(--fill-0, #2D9385)"/>
<path id="Vector_3" d="M32.9188 17.5046H1.38477C0.620378 17.5046 2.04177e-07 16.8831 2.04177e-07 16.1173C2.04177e-07 15.3515 0.620378 14.73 1.38477 14.73H32.9188C33.6832 14.73 34.3036 15.3515 34.3036 16.1173C34.3036 16.8831 33.6832 17.5046 32.9188 17.5046Z" fill="var(--fill-0, #2D9385)"/>
<path id="Vector_4" d="M32.9188 24.8682H1.38477C0.620378 24.8682 2.04177e-07 24.2467 2.04177e-07 23.4809C2.04177e-07 22.7152 0.620378 22.0937 1.38477 22.0937H32.9188C33.6832 22.0937 34.3036 22.7152 34.3036 23.4809C34.3036 24.2467 33.6832 24.8682 32.9188 24.8682Z" fill="var(--fill-0, #2D9385)"/>
<path id="Vector_5" d="M32.9188 32.2346H1.38477C0.620378 32.2346 2.04177e-07 31.6131 2.04177e-07 30.8473C2.04177e-07 30.0816 0.620378 29.4601 1.38477 29.4601H32.9188C33.6832 29.4601 34.3036 30.0816 34.3036 30.8473C34.3036 31.6131 33.6832 32.2346 32.9188 32.2346Z" fill="var(--fill-0, #2D9385)"/>
<path id="Vector_6" d="M14.7534 39.5982H1.38477C0.620378 39.5982 2.04177e-07 38.9768 2.04177e-07 38.211C2.04177e-07 37.4452 0.620378 36.8237 1.38477 36.8237H14.7534C15.5178 36.8237 16.1381 37.4452 16.1381 38.211C16.1381 38.9768 15.5178 39.5982 14.7534 39.5982Z" fill="var(--fill-0, #2D9385)"/>
</g>
</svg>
