<svg preserveAspectRatio="none" width="100%" height="100%" overflow="visible" style="display: block;" viewBox="0 0 93.8516 83.7415" fill="none" xmlns="http://www.w3.org/2000/svg">
<g id="Group">
<path id="Vector" d="M1.4836 30.2213L21.6791 81.478C21.9599 82.1907 22.7642 82.5404 23.4756 82.2591L91.5909 55.3243C92.3023 55.043 92.6513 54.2372 92.3705 53.5246L72.175 2.26789C71.8943 1.55523 71.0899 1.20555 70.3786 1.48685L2.26325 28.4216C1.55187 28.7029 1.20281 29.5087 1.4836 30.2213Z" fill="var(--fill-0, #FDFCFB)"/>
<path id="Vector_2" d="M22.9692 83.7415C21.8642 83.7415 20.8201 83.0756 20.3908 81.9852L0.195274 30.7284C-0.0761413 30.0403 -0.065066 29.2856 0.231275 28.6058C0.524847 27.9261 1.06768 27.4017 1.75453 27.1298L69.8687 0.194527C71.2895 -0.368705 72.9014 0.333255 73.4608 1.75659L93.6564 53.0135C93.9278 53.7016 93.9167 54.4562 93.6204 55.136C93.3268 55.8157 92.784 56.3401 92.0971 56.612L23.9829 83.5473C23.6506 83.6777 23.3071 83.7415 22.9692 83.7415ZM70.8824 2.77485L2.76818 29.7129L22.9637 80.9697L91.0779 54.0345L70.8824 2.77762V2.77485Z" fill="var(--fill-0, #DFECE0)"/>
</g>
</svg>
