<svg preserveAspectRatio="none" width="100%" height="100%" overflow="visible" style="display: block;" viewBox="0 0 48.2779 46.7656" fill="none" xmlns="http://www.w3.org/2000/svg">
<g id="Group">
<path id="Vector" d="M9.48253 46.7656C8.93139 46.7656 8.40795 46.4327 8.19469 45.8861L0.0965365 25.3295C-0.183188 24.6165 0.165775 23.8119 0.874778 23.5289C1.58655 23.2458 2.38972 23.5982 2.67221 24.3085L10.7704 44.8651C11.0501 45.5781 10.7011 46.3827 9.99212 46.6658C9.82595 46.7323 9.65424 46.7629 9.4853 46.7629L9.48253 46.7656Z" fill="var(--fill-0, #B2D6C9)"/>
<path id="Vector_2" d="M16.9631 43.808C16.4119 43.808 15.8885 43.475 15.6752 42.9284L3.00733 10.7771C2.7276 10.064 3.07657 9.25938 3.78557 8.97637C4.49735 8.69614 5.30051 9.04575 5.58301 9.75603L18.2509 41.9074C18.5306 42.6204 18.1817 43.4251 17.4727 43.7081C17.3065 43.7747 17.1348 43.8052 16.9658 43.8052L16.9631 43.808Z" fill="var(--fill-0, #B2D6C9)"/>
<path id="Vector_3" d="M24.4464 40.8475C23.8952 40.8475 23.3718 40.5146 23.1585 39.968L10.4906 7.81662C10.2109 7.10356 10.5599 6.29895 11.2689 6.01595C11.9807 5.73294 12.7838 6.08531 13.0663 6.79559L25.7342 38.947C26.0139 39.66 25.665 40.4646 24.956 40.7476C24.7898 40.8142 24.6181 40.8448 24.4492 40.8448L24.4464 40.8475Z" fill="var(--fill-0, #B2D6C9)"/>
<path id="Vector_4" d="M31.9269 37.8899C31.3758 37.8899 30.8523 37.5569 30.6391 37.0103L17.9712 4.85897C17.6915 4.14591 18.0404 3.3413 18.7494 3.05829C19.4612 2.77529 20.2644 3.12765 20.5469 3.83794L33.2148 35.9893C33.4945 36.7024 33.1455 37.507 32.4365 37.79C32.2703 37.8566 32.0986 37.8871 31.9297 37.8871L31.9269 37.8899Z" fill="var(--fill-0, #B2D6C9)"/>
<path id="Vector_5" d="M39.4102 34.9294C38.8591 34.9294 38.3357 34.5965 38.1224 34.0499L25.4545 1.89853C25.1748 1.18547 25.5237 0.380856 26.2327 0.0978533C26.9445 -0.18515 27.7477 0.167216 28.0302 0.877499L40.6981 33.0289C40.9778 33.7419 40.6288 34.5466 39.9198 34.8296C39.7537 34.8962 39.582 34.9267 39.413 34.9267L39.4102 34.9294Z" fill="var(--fill-0, #B2D6C9)"/>
<path id="Vector_6" d="M46.8936 31.9718C46.3424 31.9718 45.819 31.6388 45.6057 31.0923L40.2356 17.4609C39.9558 16.7479 40.3048 15.9433 41.0138 15.6603C41.7256 15.3773 42.5287 15.7296 42.8112 16.4399L48.1814 30.0712C48.4611 30.7843 48.1122 31.5889 47.4031 31.8719C47.237 31.9385 47.0653 31.969 46.8963 31.969L46.8936 31.9718Z" fill="var(--fill-0, #B2D6C9)"/>
</g>
</svg>
