<svg preserveAspectRatio="none" width="100%" height="100%" overflow="visible" style="display: block;" viewBox="0 0 97.0214 94.786" fill="none" xmlns="http://www.w3.org/2000/svg">
<g id="Group">
<path id="Vector" d="M36.7969 1.8791L1.70521 44.3138C1.2173 44.9038 1.29921 45.7784 1.88814 46.2671L58.2799 93.0691C58.8688 93.5578 59.7418 93.4758 60.2297 92.8858L95.3214 50.4511C95.8093 49.8611 95.7274 48.9865 95.1385 48.4978L38.7467 1.69584C38.1578 1.20705 37.2848 1.2891 36.7969 1.8791Z" fill="var(--fill-0, #FDFCFB)"/>
<path id="Vector_2" d="M59.1541 94.7832C58.5309 94.7832 57.905 94.5751 57.3899 94.1451L1.00193 47.3413C-0.175129 46.3647 -0.338532 44.614 0.636348 43.4348L35.732 1.00373C36.7069 -0.175448 38.4545 -0.33914 39.6316 0.637498L96.0195 47.444C97.1966 48.4206 97.36 50.1714 96.3851 51.3505L61.2894 93.7816C60.741 94.4419 59.9517 94.786 59.1541 94.786V94.7832ZM37.8618 2.77389L2.7689 45.2049L59.1569 92.0114L94.2525 49.5776L37.8646 2.77389H37.8618Z" fill="var(--fill-0, #DFECE0)"/>
</g>
</svg>
