<svg preserveAspectRatio="none" width="100%" height="100%" overflow="visible" style="display: block;" viewBox="0 0 49.5585 49.9585" fill="none" xmlns="http://www.w3.org/2000/svg">
<g id="Group">
<path id="Vector" d="M1.3849 24.2496C1.07471 24.2496 0.761751 24.1442 0.501414 23.9305C-0.0884992 23.4422 -0.168817 22.5682 0.318623 21.9773L14.3935 4.96101C14.8809 4.37003 15.7533 4.28957 16.3432 4.77789C16.9331 5.26621 17.0134 6.14019 16.526 6.73117L2.45117 23.7474C2.17699 24.0776 1.78094 24.2496 1.3849 24.2496Z" fill="var(--fill-0, #B2D6C9)"/>
<path id="Vector_2" d="M7.5776 29.3908C7.26741 29.3908 6.95446 29.2854 6.69412 29.0718C6.1042 28.5834 6.02389 27.7095 6.51133 27.1185L28.5264 0.502318C29.0139 -0.0886591 29.8863 -0.169122 30.4762 0.319197C31.0661 0.807517 31.1464 1.6815 30.659 2.27248L8.64388 28.8886C8.36969 29.2188 7.97365 29.3908 7.5776 29.3908Z" fill="var(--fill-0, #B2D6C9)"/>
<path id="Vector_3" d="M13.7731 34.5348C13.4629 34.5348 13.1499 34.4294 12.8896 34.2158C12.2997 33.7274 12.2194 32.8535 12.7068 32.2625L34.7219 5.64632C35.2094 5.05534 36.0818 4.97488 36.6717 5.4632C37.2616 5.95152 37.3419 6.8255 36.8545 7.41648L14.8394 34.0326C14.5652 34.3628 14.1691 34.5348 13.7731 34.5348Z" fill="var(--fill-0, #B2D6C9)"/>
<path id="Vector_4" d="M19.9658 39.6761C19.6556 39.6761 19.3426 39.5706 19.0823 39.357C18.4924 38.8687 18.4121 37.9947 18.8995 37.4037L40.9146 10.7875C41.4021 10.1966 42.2745 10.1161 42.8644 10.6044C43.4543 11.0927 43.5346 11.9667 43.0472 12.5577L21.0321 39.1739C20.7579 39.504 20.3618 39.6761 19.9658 39.6761Z" fill="var(--fill-0, #B2D6C9)"/>
<path id="Vector_5" d="M26.1585 44.8173C25.8483 44.8173 25.5353 44.7118 25.275 44.4982C24.6851 44.0099 24.6048 43.1359 25.0922 42.5449L47.1073 15.9288C47.5948 15.3378 48.4672 15.2573 49.0571 15.7456C49.647 16.234 49.7273 17.1079 49.2399 17.6989L27.2248 44.3151C26.9506 44.6453 26.5545 44.8173 26.1585 44.8173Z" fill="var(--fill-0, #B2D6C9)"/>
<path id="Vector_6" d="M32.354 49.9585C32.0438 49.9585 31.7308 49.8531 31.4705 49.6394C30.8806 49.1511 30.8002 48.2771 31.2877 47.6862L40.6211 36.4021C41.1085 35.8111 41.9809 35.7307 42.5708 36.219C43.1607 36.7073 43.241 37.5813 42.7536 38.1723L33.4202 49.4563C33.1461 49.7865 32.75 49.9585 32.354 49.9585Z" fill="var(--fill-0, #B2D6C9)"/>
</g>
</svg>
