<svg preserveAspectRatio="none" width="100%" height="100%" overflow="visible" style="display: block;" viewBox="0 0 60.545 78.9107" fill="none" xmlns="http://www.w3.org/2000/svg">
<g id="Group">
<path id="Vector" d="M57.7755 1.38727H2.76955C2.00476 1.38727 1.38477 2.00837 1.38477 2.77454V76.1362C1.38477 76.9023 2.00476 77.5234 2.76955 77.5234H57.7755C58.5403 77.5234 59.1603 76.9023 59.1603 76.1362V2.77454C59.1603 2.00837 58.5403 1.38727 57.7755 1.38727Z" fill="var(--fill-0, #FDFCFB)"/>
<path id="Vector_2" d="M57.7755 78.9079H2.76955C1.24353 78.9079 0 77.6622 0 76.1334V2.77454C0 1.24577 1.24353 0 2.76955 0H57.7755C59.3015 0 60.545 1.24577 60.545 2.77454V76.1362C60.545 77.665 59.3015 78.9107 57.7755 78.9107V78.9079ZM2.76955 2.77454V76.1362H57.7783V2.77454H2.76955Z" fill="var(--fill-0, #DFECE0)"/>
</g>
</svg>
