<svg preserveAspectRatio="none" width="100%" height="100%" overflow="visible" style="display: block;" viewBox="0 0 37.2753 43.0664" fill="none" xmlns="http://www.w3.org/2000/svg">
<g id="Group">
<path id="Vector" d="M23.4442 2.77454H1.38477C0.620378 2.77454 0 2.15304 0 1.38727C0 0.621497 0.620378 0 1.38477 0H23.4442C24.2086 0 24.829 0.621497 24.829 1.38727C24.829 2.15304 24.2086 2.77454 23.4442 2.77454Z" fill="var(--fill-0, #B2D6C9)"/>
<path id="Vector_2" d="M35.8905 10.8318H1.38477C0.620379 10.8318 4.78212e-07 10.2103 4.78212e-07 9.44453C4.78212e-07 8.67876 0.620379 8.05726 1.38477 8.05726H35.8905C36.6549 8.05726 37.2753 8.67876 37.2753 9.44453C37.2753 10.2103 36.6549 10.8318 35.8905 10.8318Z" fill="var(--fill-0, #B2D6C9)"/>
<path id="Vector_3" d="M35.8905 18.8918H1.38477C0.620379 18.8918 4.78212e-07 18.2704 4.78212e-07 17.5046C4.78212e-07 16.7388 0.620379 16.1173 1.38477 16.1173H35.8905C36.6549 16.1173 37.2753 16.7388 37.2753 17.5046C37.2753 18.2704 36.6549 18.8918 35.8905 18.8918Z" fill="var(--fill-0, #B2D6C9)"/>
<path id="Vector_4" d="M35.8905 26.9491H1.38477C0.620379 26.9491 4.78212e-07 26.3276 4.78212e-07 25.5618C4.78212e-07 24.7961 0.620379 24.1746 1.38477 24.1746H35.8905C36.6549 24.1746 37.2753 24.7961 37.2753 25.5618C37.2753 26.3276 36.6549 26.9491 35.8905 26.9491Z" fill="var(--fill-0, #B2D6C9)"/>
<path id="Vector_5" d="M35.8905 35.0092H1.38477C0.620379 35.0092 4.78212e-07 34.3877 4.78212e-07 33.6219C4.78212e-07 32.8561 0.620379 32.2346 1.38477 32.2346H35.8905C36.6549 32.2346 37.2753 32.8561 37.2753 33.6219C37.2753 34.3877 36.6549 35.0092 35.8905 35.0092Z" fill="var(--fill-0, #B2D6C9)"/>
<path id="Vector_6" d="M16.0163 43.0664H1.38754C0.623149 43.0664 0.00277062 42.4449 0.00277062 41.6792C0.00277062 40.9134 0.623149 40.2919 1.38754 40.2919H16.0163C16.7807 40.2919 17.4011 40.9134 17.4011 41.6792C17.4011 42.4449 16.7807 43.0664 16.0163 43.0664Z" fill="var(--fill-0, #B2D6C9)"/>
</g>
</svg>
