<svg preserveAspectRatio="none" width="100%" height="100%" overflow="visible" style="display: block;" viewBox="0 0 96.5828 95.9218" fill="none" xmlns="http://www.w3.org/2000/svg">
<g id="Group">
<path id="Vector" d="M94.8188 42.029L57.1996 1.82613C56.6765 1.26716 55.8002 1.2388 55.2423 1.7628L1.81647 51.9356C1.2585 52.4596 1.2302 53.3375 1.75325 53.8965L39.3724 94.0993C39.8955 94.6583 40.7718 94.6866 41.3298 94.1626L94.7555 43.9898C95.3135 43.4658 95.3418 42.5879 94.8188 42.029Z" fill="var(--fill-0, #FDFCFB)"/>
<path id="Vector_2" d="M40.3899 95.9218C39.6504 95.9218 38.9137 95.6277 38.3681 95.045L0.749383 54.8447C0.242556 54.3037 -0.0233196 53.5989 0.00160633 52.8581C0.0265322 52.1173 0.33672 51.4292 0.876782 50.9243L54.2986 0.749496C55.4119 -0.296506 57.1678 -0.241015 58.2119 0.87435L95.8334 41.0747C96.3403 41.6157 96.6061 42.3204 96.5812 43.0612C96.5563 43.802 96.2461 44.4901 95.706 44.9951L42.2843 95.1699C41.7497 95.6721 41.0712 95.919 40.3899 95.919V95.9218ZM56.1929 2.77214L2.76838 52.9469L40.3899 93.15L93.8117 42.9752L56.1929 2.77214Z" fill="var(--fill-0, #DFECE0)"/>
</g>
</svg>
