<svg preserveAspectRatio="none" width="100%" height="100%" overflow="visible" style="display: block;" viewBox="0 0 70.6441 115.854" fill="none" xmlns="http://www.w3.org/2000/svg">
<g id="Group">
<path id="Vector" d="M68.3308 4.62861H2.31328C1.03437 4.62861 4.61134e-06 3.59378 4.61134e-06 2.3143C4.61134e-06 1.03482 1.03437 0 2.31328 0H68.3308C69.6098 0 70.6441 1.03482 70.6441 2.3143C70.6441 3.59378 69.6098 4.62861 68.3308 4.62861Z" fill="var(--fill-0, #2D9385)"/>
<path id="Vector_2" d="M68.3308 17.5854H2.31327C1.03436 17.5854 0 16.5506 0 15.2711C0 13.9916 1.03436 12.9568 2.31327 12.9568H68.3308C69.6097 12.9568 70.6441 13.9916 70.6441 15.2711C70.6441 16.5506 69.6097 17.5854 68.3308 17.5854Z" fill="var(--fill-0, #2D9385)"/>
<path id="Vector_3" d="M68.3308 53.7646H2.31327C1.03436 53.7646 0 52.7298 0 51.4503C0 50.1708 1.03436 49.136 2.31327 49.136H68.3308C69.6097 49.136 70.6441 50.1708 70.6441 51.4503C70.6441 52.7298 69.6097 53.7646 68.3308 53.7646Z" fill="var(--fill-0, #2D9385)"/>
<path id="Vector_4" d="M68.3308 66.7214H2.31327C1.03436 66.7214 0 65.6866 0 64.4071C0 63.1276 1.03436 62.0928 2.31327 62.0928H68.3308C69.6097 62.0928 70.6441 63.1276 70.6441 64.4071C70.6441 65.6866 69.6097 66.7214 68.3308 66.7214Z" fill="var(--fill-0, #2D9385)"/>
<path id="Vector_5" d="M68.3308 102.901H2.31327C1.03436 102.901 0 101.866 0 100.586C0 99.3068 1.03436 98.272 2.31327 98.272H68.3308C69.6097 98.272 70.6441 99.3068 70.6441 100.586C70.6441 101.866 69.6097 102.901 68.3308 102.901Z" fill="var(--fill-0, #2D9385)"/>
<path id="Vector_6" d="M68.3308 115.854H2.31327C1.03436 115.854 0 114.819 0 113.54C0 112.26 1.03436 111.225 2.31327 111.225H68.3308C69.6097 111.225 70.6441 112.26 70.6441 113.54C70.6441 114.819 69.6097 115.854 68.3308 115.854Z" fill="var(--fill-0, #2D9385)"/>
</g>
</svg>
