<svg preserveAspectRatio="none" width="100%" height="100%" overflow="visible" style="display: block;" viewBox="0 0 113.843 148.777" fill="none" xmlns="http://www.w3.org/2000/svg">
<g id="Group">
<path id="Vector" d="M112.191 80.3427V145.269C112.191 146.294 111.361 147.124 110.337 147.124H3.50626C2.48181 147.124 1.65234 146.294 1.65234 145.269V3.50783C1.65234 2.48292 2.48181 1.65308 3.50626 1.65308H110.337C111.361 1.65308 112.191 2.48292 112.191 3.50783V58.0163" fill="var(--fill-0, #FDFCFB)"/>
<path id="Vector_2" d="M110.337 148.777H3.50626C1.57303 148.777 0 147.203 0 145.269V3.50782C0 1.57373 1.57303 0 3.50626 0H110.337C112.27 0 113.843 1.57373 113.843 3.50782V58.0163H110.538V3.50782C110.538 3.39542 110.449 3.30615 110.337 3.30615H3.50626C3.3939 3.30615 3.30468 3.39542 3.30468 3.50782V145.269C3.30468 145.381 3.3939 145.471 3.50626 145.471H110.337C110.449 145.471 110.538 145.381 110.538 145.269V80.3427H113.843V145.269C113.843 147.203 112.27 148.777 110.337 148.777Z" fill="var(--fill-0, #DFECE0)"/>
</g>
</svg>
