<svg preserveAspectRatio="none" width="100%" height="100%" overflow="visible" style="display: block;" viewBox="0 0 113.843 148.777" fill="none" xmlns="http://www.w3.org/2000/svg">
<g id="Group">
<path id="Vector" d="M110.541 1.65307H3.30798C2.39542 1.65307 1.65564 2.39318 1.65564 3.30615V145.471C1.65564 146.384 2.39542 147.124 3.30798 147.124H110.541C111.454 147.124 112.194 146.384 112.194 145.471V3.30615C112.194 2.39318 111.454 1.65307 110.541 1.65307Z" fill="var(--fill-0, #FDFCFB)"/>
<path id="Vector_2" d="M110.541 148.773H3.30468C1.4838 148.773 0 147.289 0 145.467V3.30615C0 1.48446 1.4838 0 3.30468 0H110.538C112.359 0 113.843 1.48446 113.843 3.30615V145.471C113.843 147.292 112.359 148.777 110.538 148.777L110.541 148.773ZM3.30468 3.30615V145.471H110.541V3.30615H3.30468Z" fill="var(--fill-0, #DFECE0)"/>
</g>
</svg>
