<svg preserveAspectRatio="none" width="100%" height="100%" overflow="visible" style="display: block;" viewBox="0 0 113.843 148.777" fill="none" xmlns="http://www.w3.org/2000/svg">
<g id="Group">
<path id="Vector" d="M110.538 1.65307H3.30468C2.39212 1.65307 1.65234 2.39318 1.65234 3.30615V145.471C1.65234 146.384 2.39212 147.124 3.30468 147.124H110.538C111.451 147.124 112.191 146.384 112.191 145.471V3.30615C112.191 2.39318 111.451 1.65307 110.538 1.65307Z" fill="var(--fill-0, #FDFCFB)"/>
<path id="Vector_2" d="M110.538 148.777H3.30468C1.4838 148.777 0 147.292 0 145.471V3.30615C0 1.48446 1.4838 0 3.30468 0H110.538C112.359 0 113.843 1.48446 113.843 3.30615V145.471C113.843 147.292 112.359 148.777 110.538 148.777ZM3.30468 3.30615V145.471H110.541V3.30615H3.30468Z" fill="var(--fill-0, #DFECE0)"/>
</g>
</svg>
