<svg preserveAspectRatio="none" width="100%" height="100%" overflow="visible" style="display: block;" viewBox="0 0 70.6441 81.6123" fill="none" xmlns="http://www.w3.org/2000/svg">
<g id="Group">
<path id="Vector" d="M68.3308 4.62861H2.31327C1.03436 4.62861 0 3.59378 0 2.3143C0 1.03482 1.03436 0 2.31327 0H68.3308C69.6097 0 70.6441 1.03482 70.6441 2.3143C70.6441 3.59378 69.6097 4.62861 68.3308 4.62861Z" fill="var(--fill-0, #2D9385)"/>
<path id="Vector_2" d="M68.3308 20.0253H2.31327C1.03436 20.0253 2.70661e-08 18.9905 2.70661e-08 17.711C2.70661e-08 16.4316 1.03436 15.3967 2.31327 15.3967H68.3308C69.6097 15.3967 70.6441 16.4316 70.6441 17.711C70.6441 18.9905 69.6097 20.0253 68.3308 20.0253Z" fill="var(--fill-0, #2D9385)"/>
<path id="Vector_3" d="M68.3308 35.4221H2.31327C1.03436 35.4221 2.70661e-08 34.3873 2.70661e-08 33.1078C2.70661e-08 31.8283 1.03436 30.7935 2.31327 30.7935H68.3308C69.6097 30.7935 70.6441 31.8283 70.6441 33.1078C70.6441 34.3873 69.6097 35.4221 68.3308 35.4221Z" fill="var(--fill-0, #2D9385)"/>
<path id="Vector_4" d="M68.3308 50.8188H2.31327C1.03436 50.8188 2.70661e-08 49.784 2.70661e-08 48.5045C2.70661e-08 47.225 1.03436 46.1902 2.31327 46.1902H68.3308C69.6097 46.1902 70.6441 47.225 70.6441 48.5045C70.6441 49.784 69.6097 50.8188 68.3308 50.8188Z" fill="var(--fill-0, #2D9385)"/>
<path id="Vector_5" d="M68.3308 66.2156H2.31327C1.03436 66.2156 2.70661e-08 65.1807 2.70661e-08 63.9013C2.70661e-08 62.6218 1.03436 61.587 2.31327 61.587H68.3308C69.6097 61.587 70.6441 62.6218 70.6441 63.9013C70.6441 65.1807 69.6097 66.2156 68.3308 66.2156Z" fill="var(--fill-0, #2D9385)"/>
<path id="Vector_6" d="M68.3308 81.6123H2.31327C1.03436 81.6123 2.70661e-08 80.5775 2.70661e-08 79.298C2.70661e-08 78.0185 1.03436 76.9837 2.31327 76.9837H68.3308C69.6097 76.9837 70.6441 78.0185 70.6441 79.298C70.6441 80.5775 69.6097 81.6123 68.3308 81.6123Z" fill="var(--fill-0, #2D9385)"/>
</g>
</svg>
