<svg preserveAspectRatio="none" width="100%" height="100%" overflow="visible" style="display: block;" viewBox="0 0 132.174 179.679" fill="none" xmlns="http://www.w3.org/2000/svg">
<g id="Group">
<path id="Vector" d="M1.65565 109.953V176.175C1.65565 177.2 2.48512 178.03 3.50957 178.03H128.671C129.695 178.03 130.525 177.2 130.525 176.175V3.50782C130.525 2.48292 129.695 1.65307 128.671 1.65307H3.50957C2.48512 1.65307 1.65565 2.48292 1.65565 3.50782V109.953Z" fill="var(--fill-0, #FDFCFB)"/>
<path id="Vector_2" d="M128.668 179.679H3.50626C1.57302 179.679 0 178.106 0 176.171V3.50782C0 1.57373 1.57302 0 3.50626 0H128.668C130.601 0 132.174 1.57373 132.174 3.50782V176.171C132.174 178.106 130.601 179.679 128.668 179.679ZM3.50957 3.30615C3.39721 3.30615 3.30799 3.39542 3.30799 3.50782V176.171C3.30799 176.284 3.39721 176.373 3.50957 176.373H128.671C128.783 176.373 128.873 176.284 128.873 176.171V3.50782C128.873 3.39542 128.783 3.30615 128.671 3.30615H3.50957Z" fill="var(--fill-0, #DFECE0)"/>
</g>
</svg>
