<svg preserveAspectRatio="none" width="100%" height="100%" overflow="visible" style="display: block;" viewBox="0 0 52.4593 36.486" fill="none" xmlns="http://www.w3.org/2000/svg">
<path id="Vector" d="M35.5517 35.9463L51.9165 19.5742C52.6402 18.8502 52.6402 17.6765 51.9165 16.9525L35.5187 0.544049C34.8082 -0.166773 33.6615 -0.183304 32.9344 0.507681L29.8941 3.38734C29.1374 4.10477 29.1208 5.30821 29.8578 6.04548L36.1135 12.304L38.0137 14.2051H1.85393C0.82948 14.2051 0 15.0349 0 16.0598V20.4636C0 21.4885 0.82948 22.3184 1.85393 22.3184H38.0137L36.1135 24.2194L30.0759 30.5143C29.3786 31.2417 29.3885 32.3955 30.1023 33.1096L32.9344 35.943C33.6581 36.667 34.8313 36.667 35.555 35.943L35.5517 35.9463Z" fill="var(--fill-0, #EE6C4D)"/>
</svg>
