<svg preserveAspectRatio="none" width="100%" height="100%" overflow="visible" style="display: block;" viewBox="0 0 72.0951 72.3077" fill="none" xmlns="http://www.w3.org/2000/svg">
<g id="Group">
<g id="Group_2">
<path id="Vector" d="M53.7513 9.47692L62.6449 18.3968C63.7789 19.5342 63.7789 21.3804 62.6449 22.5178L22.3783 62.9037L9.37582 49.8627L49.6425 9.47692C50.7765 8.33952 52.6173 8.33952 53.7513 9.47692Z" fill="var(--fill-0, #EE6C4D)"/>
<path id="Vector_2" d="M22.378 64.3613C22.0062 64.3613 21.6343 64.2185 21.3495 63.9358L8.34791 50.8957C7.78136 50.3275 7.78136 49.4038 8.34791 48.8355L48.6166 8.44765C49.4388 7.62299 50.5342 7.16841 51.6992 7.16841C52.8643 7.16841 53.9567 7.62299 54.7819 8.44765L63.6752 17.3674C65.3749 19.0721 65.3749 21.8433 63.6752 23.5479L23.4094 63.9329C23.1247 64.2185 22.7528 64.3583 22.3809 64.3583L22.378 64.3613ZM11.4305 49.8642L22.378 60.8441L61.6182 21.4878C62.1848 20.9195 62.1848 19.9958 61.6182 19.4276L52.7248 10.5078C52.1583 9.93962 51.2373 9.93962 50.6707 10.5078L11.4305 49.8642Z" fill="var(--fill-0, #BF4E30)"/>
</g>
<g id="Group_3">
<path id="Vector_3" d="M64.746 2.30781L69.7958 7.37251C70.9298 8.50991 70.9298 10.3561 69.7958 11.4935L62.7799 18.5301L53.6213 9.34442L60.6372 2.30781C61.7712 1.17041 63.612 1.17041 64.746 2.30781Z" fill="var(--fill-0, #EE6C4D)"/>
<path id="Vector_4" d="M62.7775 19.99C62.3911 19.99 62.0221 19.8355 61.749 19.5645L52.5883 10.3767C52.0217 9.80849 52.0217 8.88475 52.5883 8.31652L59.6048 1.27924C60.427 0.454582 61.5224 0 62.6874 0C63.8525 0 64.9449 0.454582 65.77 1.27924L70.8196 6.34375C71.6418 7.16841 72.0951 8.26699 72.0951 9.4355C72.0951 10.604 71.6418 11.6997 70.8196 12.5272L63.8031 19.5645C63.53 19.8384 63.161 19.99 62.7746 19.99H62.7775ZM55.6738 9.34516L62.7775 16.4728L68.7684 10.4641C69.0415 10.1902 69.1926 9.82306 69.1926 9.43258C69.1926 9.04211 69.0415 8.67786 68.7684 8.40103L63.7188 3.33652C63.4457 3.0626 63.0797 2.91107 62.6903 2.91107C62.301 2.91107 61.9378 3.0626 61.6618 3.33652L55.6738 9.34516Z" fill="var(--fill-0, #BF4E30)"/>
</g>
<path id="Vector_5" d="M48.2709 47.8827C47.899 47.8827 47.5271 47.7399 47.2424 47.4572C46.6758 46.889 46.6758 45.9653 47.2424 45.397L59.2126 33.3914C60.3457 32.2549 60.3457 30.4075 59.2126 29.271L57.5652 27.6188C56.9987 27.0506 56.9987 26.1268 57.5652 25.5586C58.1318 24.9904 59.0528 24.9904 59.6193 25.5586L61.2667 27.2108C63.5329 29.4837 63.5329 33.1816 61.2667 35.4545L49.2965 47.4601C49.0117 47.7457 48.6399 47.8856 48.268 47.8856L48.2709 47.8827Z" fill="var(--fill-0, #BF4E30)"/>
<g id="Group_4">
<path id="Vector_6" d="M3.44361 68.8576L9.37642 49.8642L22.378 62.9043L3.44361 68.8576Z" fill="var(--fill-0, #EE6C4D)"/>
<path id="Vector_7" d="M3.44361 70.3145C3.063 70.3145 2.69403 70.1659 2.41511 69.8891C2.0316 69.5045 1.89504 68.9421 2.05483 68.4234L7.98764 49.4329C8.13872 48.9463 8.53385 48.5762 9.02777 48.4538C9.52169 48.3314 10.0418 48.4771 10.402 48.8384L23.4036 61.8785C23.7639 62.2399 23.9092 62.7615 23.7872 63.2569C23.6651 63.7522 23.2961 64.1485 22.8109 64.3001L3.87652 70.2504C3.73416 70.2941 3.58597 70.3175 3.44361 70.3175V70.3145ZM10.0447 52.5946L5.66042 66.6313L19.6557 62.2341L10.0447 52.5946Z" fill="var(--fill-0, #BF4E30)"/>
</g>
<path id="Vector_8" d="M1.45342 72.3077C1.08153 72.3077 0.709642 72.1649 0.424913 71.8823C-0.141638 71.314 -0.141638 70.3903 0.424913 69.8221L2.41511 67.826C2.98166 67.2578 3.90267 67.2578 4.46922 67.826C5.03577 68.3942 5.03577 69.318 4.46922 69.8862L2.47903 71.8823C2.1943 72.1678 1.82241 72.3077 1.45052 72.3077H1.45342Z" fill="var(--fill-0, #BF4E30)"/>
</g>
</svg>
