<svg preserveAspectRatio="none" width="100%" height="100%" overflow="visible" style="display: block;" viewBox="0 0 112.886 148.01" fill="none" xmlns="http://www.w3.org/2000/svg">
<g id="Group">
<path id="Vector" d="M109.981 1.45699H2.90539C2.10309 1.45699 1.4527 2.10931 1.4527 2.91399V145.096C1.4527 145.901 2.10309 146.553 2.90539 146.553H109.981C110.783 146.553 111.433 145.901 111.433 145.096V2.91399C111.433 2.10931 110.783 1.45699 109.981 1.45699Z" fill="var(--fill-0, #FDFCFB)"/>
<path id="Vector_2" d="M109.981 148.01H2.90539C1.30452 148.01 0 146.702 0 145.096V2.91399C0 1.30838 1.30452 0 2.90539 0H109.981C111.582 0 112.886 1.30838 112.886 2.91399V145.096C112.886 146.702 111.582 148.01 109.981 148.01ZM2.90539 2.91399V145.096H109.981V2.91399H2.90539Z" fill="var(--fill-0, #DFECE0)"/>
</g>
</svg>
