<svg preserveAspectRatio="none" width="100%" height="100%" overflow="visible" style="display: block;" viewBox="0 0 65.2028 14.2581" fill="none" xmlns="http://www.w3.org/2000/svg">
<g id="Group">
<path id="Vector" d="M63.1661 4.07958H2.03377C0.909387 4.07958 0 3.16751 0 2.03979C0 0.912078 0.909387 0 2.03377 0H63.169C64.2934 0 65.2028 0.912078 65.2028 2.03979C65.2028 3.16751 64.2934 4.07958 63.169 4.07958H63.1661Z" fill="var(--fill-0, #2D9385)"/>
<path id="Vector_2" d="M63.1661 14.2581H2.03377C0.909388 14.2581 5.91143e-07 13.3461 5.91143e-07 12.2184C5.91143e-07 11.0906 0.909388 10.1786 2.03377 10.1786H63.169C64.2934 10.1786 65.2028 11.0906 65.2028 12.2184C65.2028 13.3461 64.2934 14.2581 63.169 14.2581H63.1661Z" fill="var(--fill-0, #2D9385)"/>
</g>
</svg>
