<svg preserveAspectRatio="none" width="100%" height="100%" overflow="visible" style="display: block;" viewBox="0 0 60.6297 14.2581" fill="none" xmlns="http://www.w3.org/2000/svg">
<g id="Group">
<path id="Vector" d="M58.5959 4.07958H2.03377C0.909387 4.07958 0 3.16751 0 2.03979C0 0.912078 0.909387 0 2.03377 0H58.5959C59.7203 0 60.6297 0.912078 60.6297 2.03979C60.6297 3.16751 59.7203 4.07958 58.5959 4.07958Z" fill="var(--fill-0, #BF4E30)"/>
<path id="Vector_2" d="M36.053 14.2581H2.03377C0.909388 14.2581 5.91143e-07 13.3461 5.91143e-07 12.2184C5.91143e-07 11.0906 0.909388 10.1786 2.03377 10.1786H36.053C37.1774 10.1786 38.0868 11.0906 38.0868 12.2184C38.0868 13.3461 37.1774 14.2581 36.053 14.2581Z" fill="var(--fill-0, #BF4E30)"/>
</g>
</svg>
